<svg width="336" height="312" viewBox="0 0 336 312" fill="none" xmlns="http://www.w3.org/2000/svg">
<circle cx="154" cy="152" r="150" fill="#4468E2"/>
<g filter="url(#filter0_d_54_88)">
<mask id="path-2-inside-1_54_88" fill="white">
<path d="M154.175 0C236.789 0 304 67.8825 304 151.675C304 235.468 236.789 303.35 154.175 303.35C71.5613 303.35 4 235.114 4 151.675C4 68.2361 71.2112 0 154.175 0ZM207.734 102.884C205.984 103.945 204.934 106.42 203.183 106.774C203.883 106.42 204.933 102.884 205.634 102.177C206.684 100.763 208.434 100.056 209.834 98.9954C213.335 97.9347 216.485 97.2276 219.986 96.874C223.487 96.1669 227.337 96.1669 230.138 98.9954C229.438 98.2882 233.988 94.0456 234.688 94.0456C236.439 92.9849 239.239 93.3385 240.639 91.5707C240.99 91.2171 240.99 87.328 240.99 87.328C237.489 87.6816 236.439 84.4996 236.439 81.6712C236.439 82.0247 235.739 82.7318 235.039 83.4389C235.389 80.257 231.538 82.7318 230.138 82.0247C225.587 80.9641 226.287 77.7821 224.887 74.6001C224.187 72.8323 222.086 72.1252 221.386 70.3574C220.336 69.2967 219.986 66.4683 218.236 66.4683C217.186 66.1148 215.085 70.711 214.735 70.3574C212.985 69.2967 211.935 70.711 210.534 71.4181C209.484 72.4787 208.434 71.7716 207.384 72.4787C210.884 71.4181 205.984 69.2967 203.883 69.6503C206.684 68.9432 205.284 66.1148 203.883 64.7005H204.933C204.583 62.9328 198.982 61.165 197.232 60.1043C195.482 59.0437 186.03 56.9223 184.28 57.983C181.83 59.3972 184.63 63.2863 184.63 65.4076C184.98 67.8825 182.53 68.2361 182.53 70.3574C182.53 73.5394 188.481 73.1859 187.081 77.7821C186.03 80.257 182.53 80.9641 180.779 83.0854C179.379 85.2067 181.13 88.7423 182.53 90.1565C184.28 91.2171 179.729 93.3385 179.379 93.692C175.879 95.1062 173.428 90.1565 172.728 87.328C172.028 85.2067 171.678 82.7318 169.578 81.3176C168.177 80.9641 164.677 80.2569 163.977 81.6712C162.576 78.4892 158.376 77.4285 155.925 76.3678C151.725 74.9536 148.574 74.9536 144.373 75.6607C145.774 75.3072 144.023 69.2967 140.873 70.3574C141.573 68.2361 141.223 66.1147 141.573 64.347C142.273 62.5792 142.973 61.165 144.023 59.7508C144.373 59.0437 148.924 54.4474 147.524 54.0939C150.674 54.4474 154.525 54.801 157.326 51.9726C159.076 50.2048 159.776 47.3763 161.526 45.255C163.977 42.4266 167.127 45.9621 169.928 46.3157C173.778 46.3157 173.428 42.073 171.328 40.3053C174.128 40.3053 171.678 35.709 170.278 35.0019C168.527 34.2948 161.876 36.0626 165.727 37.4768C164.677 37.1233 160.126 47.0228 157.326 42.073C156.625 41.0124 156.275 37.1233 154.525 36.7697C152.775 36.7697 151.725 38.5375 151.375 39.5981C152.425 37.1233 145.774 35.3555 144.373 35.3555C147.524 33.2342 145.074 31.1128 142.973 30.0522C141.223 28.9915 136.322 28.2844 134.922 29.6986C131.421 34.2948 139.123 35.0019 140.873 36.0626C141.573 36.4161 144.023 37.8304 142.623 38.891C141.223 39.2446 137.722 40.3053 137.372 41.0124C136.322 42.7801 138.772 44.9015 137.022 46.6692C135.272 44.9015 135.272 42.073 133.872 39.9517C135.622 42.073 126.87 41.0124 127.221 41.0124C124.07 41.0124 119.519 42.7801 117.419 39.9517C117.069 39.2446 117.069 34.6484 118.119 35.709C116.369 34.2948 115.319 32.8806 113.918 32.1735C107.617 34.2948 101.666 37.1233 95.7153 40.3053C96.4154 40.3053 97.1155 40.3053 97.8156 39.9517C99.5659 39.2446 100.966 38.5375 102.366 37.4768C104.467 36.7697 108.667 34.2948 110.768 36.0626C110.768 35.709 111.468 35.3555 111.818 35.3555C112.868 36.7697 114.268 38.5375 115.669 40.3053C113.918 39.2446 111.468 39.5981 109.718 39.9517C108.317 40.3053 105.867 40.6588 105.517 42.4266C105.867 43.4872 106.917 44.9015 106.217 45.9621C103.767 44.1944 102.016 41.0124 98.5158 40.6588C96.7655 40.6588 95.3652 40.6588 93.965 41.0124C75.4119 51.2655 59.6593 66.4683 48.1074 84.8532C48.8075 85.5603 49.8576 86.2674 50.5578 86.2674C52.3081 86.9745 50.5578 92.6314 54.0583 89.8029C55.4586 90.51 55.4586 91.9243 54.7585 93.3385C55.1085 93.3385 62.8098 98.2882 63.5099 98.6418C64.9102 100.056 67.0105 101.47 67.3606 102.884C68.0607 104.299 66.6604 105.713 65.6103 106.42C65.2602 106.066 62.4597 103.238 62.1097 103.945C61.4096 105.006 62.1097 110.309 64.21 109.956C61.0595 110.309 62.4597 122.33 61.7596 124.805C61.7596 125.158 62.1097 125.158 62.1097 125.158C61.4096 127.28 63.5099 136.472 67.3606 135.765C64.9102 136.119 71.9113 145.311 72.6114 146.018C75.4119 147.786 78.2124 148.847 79.9627 151.321C82.063 154.15 82.063 158.393 84.8635 160.514C83.8133 162.989 88.7141 165.464 88.7141 168.999C88.3641 169.353 88.014 169.353 87.6639 169.353C88.7141 172.181 92.2147 172.181 93.6149 174.656C94.3151 176.424 93.6149 179.959 96.0654 179.252C96.7655 175.01 93.6149 170.413 91.5146 166.878C90.4644 165.11 89.0642 163.342 88.3641 161.221C87.3139 159.453 86.9638 157.332 86.2637 155.211C86.9638 155.564 91.1645 157.332 90.8145 157.685C89.4142 161.575 97.1155 168.646 99.2159 171.121C99.916 171.828 104.467 177.838 102.016 177.838C104.467 177.838 107.967 181.727 109.368 183.495C111.118 186.677 110.768 190.212 111.818 193.395C112.868 197.284 118.469 199.051 121.62 200.819C124.42 202.233 126.52 204.355 129.321 205.415C133.522 206.83 134.572 205.415 138.072 205.062C142.973 204.001 143.673 209.658 147.874 212.133C150.324 213.547 155.925 215.315 158.376 214.254C157.326 214.608 162.576 222.74 162.926 223.093C164.677 225.568 168.177 226.629 169.928 229.104C170.628 228.75 171.328 228.043 171.328 227.336C170.628 229.457 174.478 233.7 176.229 233.346C178.329 232.993 179.029 228.75 179.029 226.982C175.179 229.104 171.678 227.336 169.578 223.447C169.228 222.386 166.077 217.083 168.527 217.083C172.378 217.083 169.928 213.901 169.578 211.072C169.228 208.244 166.427 206.83 165.027 204.355C163.977 206.83 159.776 206.122 158.726 204.001C158.726 204.708 158.026 205.769 158.026 206.476C157.326 206.476 156.275 206.83 155.225 206.122C155.575 204.001 155.925 200.819 156.275 198.344C157.326 194.809 163.977 188.091 155.575 188.445C152.425 188.445 151.375 189.859 150.324 192.334C149.274 194.809 149.624 196.93 147.174 197.991C145.424 198.698 139.473 198.344 137.722 197.284C133.872 195.162 131.421 188.445 131.421 184.556C131.071 178.899 133.872 174.303 131.421 169.353C132.471 168.292 133.872 166.524 134.922 165.464C136.322 164.757 137.722 166.171 138.072 163.696C137.722 163.342 137.022 162.635 136.672 162.635C139.473 163.696 145.074 160.514 147.524 162.635C149.274 163.696 151.025 164.049 151.725 161.928C152.075 161.575 150.674 159.1 151.375 157.685C151.725 160.867 154.175 161.575 156.975 159.453C158.026 160.514 161.176 160.16 163.277 161.221C165.727 162.635 166.077 164.757 168.527 161.928C169.928 164.403 170.278 164.403 170.978 166.524C171.328 168.646 172.728 174.303 174.478 175.363C178.679 177.838 177.629 171.121 177.279 168.646C176.929 168.292 176.929 161.928 176.929 161.928C170.628 160.514 173.078 155.564 176.579 152.382C176.929 151.675 181.48 150.261 183.58 148.847C185.33 147.079 187.431 144.25 186.38 141.775C187.431 141.775 188.131 141.068 188.481 140.008C188.131 139.654 185.68 137.886 185.33 137.886C186.73 137.179 186.38 136.119 185.68 134.704C187.781 133.644 186.73 131.522 188.481 130.815C190.931 133.644 195.132 130.462 193.032 127.987C194.782 125.158 199.333 126.573 200.383 124.098C203.533 124.805 201.433 120.916 202.833 118.794C204.233 117.027 206.684 117.027 208.434 115.966C208.434 116.32 213.335 113.491 211.585 113.138C215.085 113.491 221.736 109.956 216.485 107.127C217.186 105.359 214.735 104.652 212.985 103.945C214.385 103.592 216.135 104.652 217.186 103.592C219.986 101.824 218.236 101.117 216.135 100.41C213.335 99.7025 209.834 101.47 207.734 102.884ZM175.879 276.126C202.483 271.177 226.287 257.741 244.14 238.65C243.09 237.589 240.99 237.942 239.239 237.235C237.839 236.528 236.789 235.821 234.688 235.468C235.038 231.578 230.838 230.164 228.037 228.043C225.587 226.275 223.837 224.154 220.336 224.861C219.986 224.861 216.135 226.275 216.835 227.336C214.035 224.861 212.985 223.8 209.834 222.74C206.684 222.032 204.583 217.79 201.433 221.325C199.683 223.093 200.383 225.568 199.683 226.982C197.232 224.861 202.133 222.386 200.033 219.911C197.932 217.083 193.732 221.679 191.631 222.74C190.581 223.8 189.181 224.154 188.481 225.568C187.431 226.629 187.081 228.75 186.38 229.811C185.68 228.396 182.53 228.75 182.18 227.689C182.88 232.286 182.88 237.235 183.93 241.832C184.63 244.66 183.93 249.256 181.48 251.378C179.029 253.499 176.229 255.974 175.879 259.509C175.529 261.631 176.229 263.752 178.329 264.459C178.329 267.287 175.179 269.762 175.179 272.944C175.179 272.944 175.529 275.066 175.879 276.126Z"/>
</mask>
<path d="M154.175 0C236.789 0 304 67.8825 304 151.675C304 235.468 236.789 303.35 154.175 303.35C71.5613 303.35 4 235.114 4 151.675C4 68.2361 71.2112 0 154.175 0ZM207.734 102.884C205.984 103.945 204.934 106.42 203.183 106.774C203.883 106.42 204.933 102.884 205.634 102.177C206.684 100.763 208.434 100.056 209.834 98.9954C213.335 97.9347 216.485 97.2276 219.986 96.874C223.487 96.1669 227.337 96.1669 230.138 98.9954C229.438 98.2882 233.988 94.0456 234.688 94.0456C236.439 92.9849 239.239 93.3385 240.639 91.5707C240.99 91.2171 240.99 87.328 240.99 87.328C237.489 87.6816 236.439 84.4996 236.439 81.6712C236.439 82.0247 235.739 82.7318 235.039 83.4389C235.389 80.257 231.538 82.7318 230.138 82.0247C225.587 80.9641 226.287 77.7821 224.887 74.6001C224.187 72.8323 222.086 72.1252 221.386 70.3574C220.336 69.2967 219.986 66.4683 218.236 66.4683C217.186 66.1148 215.085 70.711 214.735 70.3574C212.985 69.2967 211.935 70.711 210.534 71.4181C209.484 72.4787 208.434 71.7716 207.384 72.4787C210.884 71.4181 205.984 69.2967 203.883 69.6503C206.684 68.9432 205.284 66.1148 203.883 64.7005H204.933C204.583 62.9328 198.982 61.165 197.232 60.1043C195.482 59.0437 186.03 56.9223 184.28 57.983C181.83 59.3972 184.63 63.2863 184.63 65.4076C184.98 67.8825 182.53 68.2361 182.53 70.3574C182.53 73.5394 188.481 73.1859 187.081 77.7821C186.03 80.257 182.53 80.9641 180.779 83.0854C179.379 85.2067 181.13 88.7423 182.53 90.1565C184.28 91.2171 179.729 93.3385 179.379 93.692C175.879 95.1062 173.428 90.1565 172.728 87.328C172.028 85.2067 171.678 82.7318 169.578 81.3176C168.177 80.9641 164.677 80.2569 163.977 81.6712C162.576 78.4892 158.376 77.4285 155.925 76.3678C151.725 74.9536 148.574 74.9536 144.373 75.6607C145.774 75.3072 144.023 69.2967 140.873 70.3574C141.573 68.2361 141.223 66.1147 141.573 64.347C142.273 62.5792 142.973 61.165 144.023 59.7508C144.373 59.0437 148.924 54.4474 147.524 54.0939C150.674 54.4474 154.525 54.801 157.326 51.9726C159.076 50.2048 159.776 47.3763 161.526 45.255C163.977 42.4266 167.127 45.9621 169.928 46.3157C173.778 46.3157 173.428 42.073 171.328 40.3053C174.128 40.3053 171.678 35.709 170.278 35.0019C168.527 34.2948 161.876 36.0626 165.727 37.4768C164.677 37.1233 160.126 47.0228 157.326 42.073C156.625 41.0124 156.275 37.1233 154.525 36.7697C152.775 36.7697 151.725 38.5375 151.375 39.5981C152.425 37.1233 145.774 35.3555 144.373 35.3555C147.524 33.2342 145.074 31.1128 142.973 30.0522C141.223 28.9915 136.322 28.2844 134.922 29.6986C131.421 34.2948 139.123 35.0019 140.873 36.0626C141.573 36.4161 144.023 37.8304 142.623 38.891C141.223 39.2446 137.722 40.3053 137.372 41.0124C136.322 42.7801 138.772 44.9015 137.022 46.6692C135.272 44.9015 135.272 42.073 133.872 39.9517C135.622 42.073 126.87 41.0124 127.221 41.0124C124.07 41.0124 119.519 42.7801 117.419 39.9517C117.069 39.2446 117.069 34.6484 118.119 35.709C116.369 34.2948 115.319 32.8806 113.918 32.1735C107.617 34.2948 101.666 37.1233 95.7153 40.3053C96.4154 40.3053 97.1155 40.3053 97.8156 39.9517C99.5659 39.2446 100.966 38.5375 102.366 37.4768C104.467 36.7697 108.667 34.2948 110.768 36.0626C110.768 35.709 111.468 35.3555 111.818 35.3555C112.868 36.7697 114.268 38.5375 115.669 40.3053C113.918 39.2446 111.468 39.5981 109.718 39.9517C108.317 40.3053 105.867 40.6588 105.517 42.4266C105.867 43.4872 106.917 44.9015 106.217 45.9621C103.767 44.1944 102.016 41.0124 98.5158 40.6588C96.7655 40.6588 95.3652 40.6588 93.965 41.0124C75.4119 51.2655 59.6593 66.4683 48.1074 84.8532C48.8075 85.5603 49.8576 86.2674 50.5578 86.2674C52.3081 86.9745 50.5578 92.6314 54.0583 89.8029C55.4586 90.51 55.4586 91.9243 54.7585 93.3385C55.1085 93.3385 62.8098 98.2882 63.5099 98.6418C64.9102 100.056 67.0105 101.47 67.3606 102.884C68.0607 104.299 66.6604 105.713 65.6103 106.42C65.2602 106.066 62.4597 103.238 62.1097 103.945C61.4096 105.006 62.1097 110.309 64.21 109.956C61.0595 110.309 62.4597 122.33 61.7596 124.805C61.7596 125.158 62.1097 125.158 62.1097 125.158C61.4096 127.28 63.5099 136.472 67.3606 135.765C64.9102 136.119 71.9113 145.311 72.6114 146.018C75.4119 147.786 78.2124 148.847 79.9627 151.321C82.063 154.15 82.063 158.393 84.8635 160.514C83.8133 162.989 88.7141 165.464 88.7141 168.999C88.3641 169.353 88.014 169.353 87.6639 169.353C88.7141 172.181 92.2147 172.181 93.6149 174.656C94.3151 176.424 93.6149 179.959 96.0654 179.252C96.7655 175.01 93.6149 170.413 91.5146 166.878C90.4644 165.11 89.0642 163.342 88.3641 161.221C87.3139 159.453 86.9638 157.332 86.2637 155.211C86.9638 155.564 91.1645 157.332 90.8145 157.685C89.4142 161.575 97.1155 168.646 99.2159 171.121C99.916 171.828 104.467 177.838 102.016 177.838C104.467 177.838 107.967 181.727 109.368 183.495C111.118 186.677 110.768 190.212 111.818 193.395C112.868 197.284 118.469 199.051 121.62 200.819C124.42 202.233 126.52 204.355 129.321 205.415C133.522 206.83 134.572 205.415 138.072 205.062C142.973 204.001 143.673 209.658 147.874 212.133C150.324 213.547 155.925 215.315 158.376 214.254C157.326 214.608 162.576 222.74 162.926 223.093C164.677 225.568 168.177 226.629 169.928 229.104C170.628 228.75 171.328 228.043 171.328 227.336C170.628 229.457 174.478 233.7 176.229 233.346C178.329 232.993 179.029 228.75 179.029 226.982C175.179 229.104 171.678 227.336 169.578 223.447C169.228 222.386 166.077 217.083 168.527 217.083C172.378 217.083 169.928 213.901 169.578 211.072C169.228 208.244 166.427 206.83 165.027 204.355C163.977 206.83 159.776 206.122 158.726 204.001C158.726 204.708 158.026 205.769 158.026 206.476C157.326 206.476 156.275 206.83 155.225 206.122C155.575 204.001 155.925 200.819 156.275 198.344C157.326 194.809 163.977 188.091 155.575 188.445C152.425 188.445 151.375 189.859 150.324 192.334C149.274 194.809 149.624 196.93 147.174 197.991C145.424 198.698 139.473 198.344 137.722 197.284C133.872 195.162 131.421 188.445 131.421 184.556C131.071 178.899 133.872 174.303 131.421 169.353C132.471 168.292 133.872 166.524 134.922 165.464C136.322 164.757 137.722 166.171 138.072 163.696C137.722 163.342 137.022 162.635 136.672 162.635C139.473 163.696 145.074 160.514 147.524 162.635C149.274 163.696 151.025 164.049 151.725 161.928C152.075 161.575 150.674 159.1 151.375 157.685C151.725 160.867 154.175 161.575 156.975 159.453C158.026 160.514 161.176 160.16 163.277 161.221C165.727 162.635 166.077 164.757 168.527 161.928C169.928 164.403 170.278 164.403 170.978 166.524C171.328 168.646 172.728 174.303 174.478 175.363C178.679 177.838 177.629 171.121 177.279 168.646C176.929 168.292 176.929 161.928 176.929 161.928C170.628 160.514 173.078 155.564 176.579 152.382C176.929 151.675 181.48 150.261 183.58 148.847C185.33 147.079 187.431 144.25 186.38 141.775C187.431 141.775 188.131 141.068 188.481 140.008C188.131 139.654 185.68 137.886 185.33 137.886C186.73 137.179 186.38 136.119 185.68 134.704C187.781 133.644 186.73 131.522 188.481 130.815C190.931 133.644 195.132 130.462 193.032 127.987C194.782 125.158 199.333 126.573 200.383 124.098C203.533 124.805 201.433 120.916 202.833 118.794C204.233 117.027 206.684 117.027 208.434 115.966C208.434 116.32 213.335 113.491 211.585 113.138C215.085 113.491 221.736 109.956 216.485 107.127C217.186 105.359 214.735 104.652 212.985 103.945C214.385 103.592 216.135 104.652 217.186 103.592C219.986 101.824 218.236 101.117 216.135 100.41C213.335 99.7025 209.834 101.47 207.734 102.884ZM175.879 276.126C202.483 271.177 226.287 257.741 244.14 238.65C243.09 237.589 240.99 237.942 239.239 237.235C237.839 236.528 236.789 235.821 234.688 235.468C235.038 231.578 230.838 230.164 228.037 228.043C225.587 226.275 223.837 224.154 220.336 224.861C219.986 224.861 216.135 226.275 216.835 227.336C214.035 224.861 212.985 223.8 209.834 222.74C206.684 222.032 204.583 217.79 201.433 221.325C199.683 223.093 200.383 225.568 199.683 226.982C197.232 224.861 202.133 222.386 200.033 219.911C197.932 217.083 193.732 221.679 191.631 222.74C190.581 223.8 189.181 224.154 188.481 225.568C187.431 226.629 187.081 228.75 186.38 229.811C185.68 228.396 182.53 228.75 182.18 227.689C182.88 232.286 182.88 237.235 183.93 241.832C184.63 244.66 183.93 249.256 181.48 251.378C179.029 253.499 176.229 255.974 175.879 259.509C175.529 261.631 176.229 263.752 178.329 264.459C178.329 267.287 175.179 269.762 175.179 272.944C175.179 272.944 175.529 275.066 175.879 276.126Z" fill="#08143D"/>
<path d="M154.175 0C236.789 0 304 67.8825 304 151.675C304 235.468 236.789 303.35 154.175 303.35C71.5613 303.35 4 235.114 4 151.675C4 68.2361 71.2112 0 154.175 0ZM207.734 102.884C205.984 103.945 204.934 106.42 203.183 106.774C203.883 106.42 204.933 102.884 205.634 102.177C206.684 100.763 208.434 100.056 209.834 98.9954C213.335 97.9347 216.485 97.2276 219.986 96.874C223.487 96.1669 227.337 96.1669 230.138 98.9954C229.438 98.2882 233.988 94.0456 234.688 94.0456C236.439 92.9849 239.239 93.3385 240.639 91.5707C240.99 91.2171 240.99 87.328 240.99 87.328C237.489 87.6816 236.439 84.4996 236.439 81.6712C236.439 82.0247 235.739 82.7318 235.039 83.4389C235.389 80.257 231.538 82.7318 230.138 82.0247C225.587 80.9641 226.287 77.7821 224.887 74.6001C224.187 72.8323 222.086 72.1252 221.386 70.3574C220.336 69.2967 219.986 66.4683 218.236 66.4683C217.186 66.1148 215.085 70.711 214.735 70.3574C212.985 69.2967 211.935 70.711 210.534 71.4181C209.484 72.4787 208.434 71.7716 207.384 72.4787C210.884 71.4181 205.984 69.2967 203.883 69.6503C206.684 68.9432 205.284 66.1148 203.883 64.7005H204.933C204.583 62.9328 198.982 61.165 197.232 60.1043C195.482 59.0437 186.03 56.9223 184.28 57.983C181.83 59.3972 184.63 63.2863 184.63 65.4076C184.98 67.8825 182.53 68.2361 182.53 70.3574C182.53 73.5394 188.481 73.1859 187.081 77.7821C186.03 80.257 182.53 80.9641 180.779 83.0854C179.379 85.2067 181.13 88.7423 182.53 90.1565C184.28 91.2171 179.729 93.3385 179.379 93.692C175.879 95.1062 173.428 90.1565 172.728 87.328C172.028 85.2067 171.678 82.7318 169.578 81.3176C168.177 80.9641 164.677 80.2569 163.977 81.6712C162.576 78.4892 158.376 77.4285 155.925 76.3678C151.725 74.9536 148.574 74.9536 144.373 75.6607C145.774 75.3072 144.023 69.2967 140.873 70.3574C141.573 68.2361 141.223 66.1147 141.573 64.347C142.273 62.5792 142.973 61.165 144.023 59.7508C144.373 59.0437 148.924 54.4474 147.524 54.0939C150.674 54.4474 154.525 54.801 157.326 51.9726C159.076 50.2048 159.776 47.3763 161.526 45.255C163.977 42.4266 167.127 45.9621 169.928 46.3157C173.778 46.3157 173.428 42.073 171.328 40.3053C174.128 40.3053 171.678 35.709 170.278 35.0019C168.527 34.2948 161.876 36.0626 165.727 37.4768C164.677 37.1233 160.126 47.0228 157.326 42.073C156.625 41.0124 156.275 37.1233 154.525 36.7697C152.775 36.7697 151.725 38.5375 151.375 39.5981C152.425 37.1233 145.774 35.3555 144.373 35.3555C147.524 33.2342 145.074 31.1128 142.973 30.0522C141.223 28.9915 136.322 28.2844 134.922 29.6986C131.421 34.2948 139.123 35.0019 140.873 36.0626C141.573 36.4161 144.023 37.8304 142.623 38.891C141.223 39.2446 137.722 40.3053 137.372 41.0124C136.322 42.7801 138.772 44.9015 137.022 46.6692C135.272 44.9015 135.272 42.073 133.872 39.9517C135.622 42.073 126.87 41.0124 127.221 41.0124C124.07 41.0124 119.519 42.7801 117.419 39.9517C117.069 39.2446 117.069 34.6484 118.119 35.709C116.369 34.2948 115.319 32.8806 113.918 32.1735C107.617 34.2948 101.666 37.1233 95.7153 40.3053C96.4154 40.3053 97.1155 40.3053 97.8156 39.9517C99.5659 39.2446 100.966 38.5375 102.366 37.4768C104.467 36.7697 108.667 34.2948 110.768 36.0626C110.768 35.709 111.468 35.3555 111.818 35.3555C112.868 36.7697 114.268 38.5375 115.669 40.3053C113.918 39.2446 111.468 39.5981 109.718 39.9517C108.317 40.3053 105.867 40.6588 105.517 42.4266C105.867 43.4872 106.917 44.9015 106.217 45.9621C103.767 44.1944 102.016 41.0124 98.5158 40.6588C96.7655 40.6588 95.3652 40.6588 93.965 41.0124C75.4119 51.2655 59.6593 66.4683 48.1074 84.8532C48.8075 85.5603 49.8576 86.2674 50.5578 86.2674C52.3081 86.9745 50.5578 92.6314 54.0583 89.8029C55.4586 90.51 55.4586 91.9243 54.7585 93.3385C55.1085 93.3385 62.8098 98.2882 63.5099 98.6418C64.9102 100.056 67.0105 101.47 67.3606 102.884C68.0607 104.299 66.6604 105.713 65.6103 106.42C65.2602 106.066 62.4597 103.238 62.1097 103.945C61.4096 105.006 62.1097 110.309 64.21 109.956C61.0595 110.309 62.4597 122.33 61.7596 124.805C61.7596 125.158 62.1097 125.158 62.1097 125.158C61.4096 127.28 63.5099 136.472 67.3606 135.765C64.9102 136.119 71.9113 145.311 72.6114 146.018C75.4119 147.786 78.2124 148.847 79.9627 151.321C82.063 154.15 82.063 158.393 84.8635 160.514C83.8133 162.989 88.7141 165.464 88.7141 168.999C88.3641 169.353 88.014 169.353 87.6639 169.353C88.7141 172.181 92.2147 172.181 93.6149 174.656C94.3151 176.424 93.6149 179.959 96.0654 179.252C96.7655 175.01 93.6149 170.413 91.5146 166.878C90.4644 165.11 89.0642 163.342 88.3641 161.221C87.3139 159.453 86.9638 157.332 86.2637 155.211C86.9638 155.564 91.1645 157.332 90.8145 157.685C89.4142 161.575 97.1155 168.646 99.2159 171.121C99.916 171.828 104.467 177.838 102.016 177.838C104.467 177.838 107.967 181.727 109.368 183.495C111.118 186.677 110.768 190.212 111.818 193.395C112.868 197.284 118.469 199.051 121.62 200.819C124.42 202.233 126.52 204.355 129.321 205.415C133.522 206.83 134.572 205.415 138.072 205.062C142.973 204.001 143.673 209.658 147.874 212.133C150.324 213.547 155.925 215.315 158.376 214.254C157.326 214.608 162.576 222.74 162.926 223.093C164.677 225.568 168.177 226.629 169.928 229.104C170.628 228.75 171.328 228.043 171.328 227.336C170.628 229.457 174.478 233.7 176.229 233.346C178.329 232.993 179.029 228.75 179.029 226.982C175.179 229.104 171.678 227.336 169.578 223.447C169.228 222.386 166.077 217.083 168.527 217.083C172.378 217.083 169.928 213.901 169.578 211.072C169.228 208.244 166.427 206.83 165.027 204.355C163.977 206.83 159.776 206.122 158.726 204.001C158.726 204.708 158.026 205.769 158.026 206.476C157.326 206.476 156.275 206.83 155.225 206.122C155.575 204.001 155.925 200.819 156.275 198.344C157.326 194.809 163.977 188.091 155.575 188.445C152.425 188.445 151.375 189.859 150.324 192.334C149.274 194.809 149.624 196.93 147.174 197.991C145.424 198.698 139.473 198.344 137.722 197.284C133.872 195.162 131.421 188.445 131.421 184.556C131.071 178.899 133.872 174.303 131.421 169.353C132.471 168.292 133.872 166.524 134.922 165.464C136.322 164.757 137.722 166.171 138.072 163.696C137.722 163.342 137.022 162.635 136.672 162.635C139.473 163.696 145.074 160.514 147.524 162.635C149.274 163.696 151.025 164.049 151.725 161.928C152.075 161.575 150.674 159.1 151.375 157.685C151.725 160.867 154.175 161.575 156.975 159.453C158.026 160.514 161.176 160.16 163.277 161.221C165.727 162.635 166.077 164.757 168.527 161.928C169.928 164.403 170.278 164.403 170.978 166.524C171.328 168.646 172.728 174.303 174.478 175.363C178.679 177.838 177.629 171.121 177.279 168.646C176.929 168.292 176.929 161.928 176.929 161.928C170.628 160.514 173.078 155.564 176.579 152.382C176.929 151.675 181.48 150.261 183.58 148.847C185.33 147.079 187.431 144.25 186.38 141.775C187.431 141.775 188.131 141.068 188.481 140.008C188.131 139.654 185.68 137.886 185.33 137.886C186.73 137.179 186.38 136.119 185.68 134.704C187.781 133.644 186.73 131.522 188.481 130.815C190.931 133.644 195.132 130.462 193.032 127.987C194.782 125.158 199.333 126.573 200.383 124.098C203.533 124.805 201.433 120.916 202.833 118.794C204.233 117.027 206.684 117.027 208.434 115.966C208.434 116.32 213.335 113.491 211.585 113.138C215.085 113.491 221.736 109.956 216.485 107.127C217.186 105.359 214.735 104.652 212.985 103.945C214.385 103.592 216.135 104.652 217.186 103.592C219.986 101.824 218.236 101.117 216.135 100.41C213.335 99.7025 209.834 101.47 207.734 102.884ZM175.879 276.126C202.483 271.177 226.287 257.741 244.14 238.65C243.09 237.589 240.99 237.942 239.239 237.235C237.839 236.528 236.789 235.821 234.688 235.468C235.038 231.578 230.838 230.164 228.037 228.043C225.587 226.275 223.837 224.154 220.336 224.861C219.986 224.861 216.135 226.275 216.835 227.336C214.035 224.861 212.985 223.8 209.834 222.74C206.684 222.032 204.583 217.79 201.433 221.325C199.683 223.093 200.383 225.568 199.683 226.982C197.232 224.861 202.133 222.386 200.033 219.911C197.932 217.083 193.732 221.679 191.631 222.74C190.581 223.8 189.181 224.154 188.481 225.568C187.431 226.629 187.081 228.75 186.38 229.811C185.68 228.396 182.53 228.75 182.18 227.689C182.88 232.286 182.88 237.235 183.93 241.832C184.63 244.66 183.93 249.256 181.48 251.378C179.029 253.499 176.229 255.974 175.879 259.509C175.529 261.631 176.229 263.752 178.329 264.459C178.329 267.287 175.179 269.762 175.179 272.944C175.179 272.944 175.529 275.066 175.879 276.126Z" stroke="black" stroke-width="2" mask="url(#path-2-inside-1_54_88)"/>
</g>
<g filter="url(#filter1_d_54_88)">
<path d="M139.126 214.626L182.111 90.4948L212.294 94.2859C227.653 96.2151 239.155 101.893 246.8 111.319C254.445 120.745 257.183 134.09 255.015 151.355C253.908 160.166 251.79 168.366 248.659 175.955C245.663 183.44 241.685 190.076 236.725 195.863C231.884 201.664 226.136 206.506 219.481 210.387C212.84 214.148 205.434 216.786 197.261 218.299C189.104 219.694 180.203 219.785 170.559 218.574L139.126 214.626ZM173.179 204.934C180.561 205.861 187.356 205.687 193.564 204.41C199.905 203.03 205.637 200.726 210.759 197.499C215.881 194.272 220.319 190.234 224.073 185.384C227.826 180.534 230.873 175.051 233.214 168.935C235.673 162.834 237.352 156.211 238.249 149.068C239.894 135.971 237.92 126.168 232.328 119.66C226.869 113.049 218.96 109.092 208.602 107.791L193.421 105.884L159.606 203.229L173.179 204.934Z" fill="white"/>
</g>
<g filter="url(#filter2_d_54_88)">
<path d="M194.28 109.506H203.28L158.64 231.366H155.76L128.22 157.566L101.22 231.366H98.34L52.8 109.506H72.42L104.1 207.066L124.26 146.946L110.22 109.506H129.84L161.52 207.066L194.28 109.506Z" fill="white"/>
</g>
<defs>
<filter id="filter0_d_54_88" x="0" y="0" width="308" height="311.35" filterUnits="userSpaceOnUse" color-interpolation-filters="sRGB">
<feFlood flood-opacity="0" result="BackgroundImageFix"/>
<feColorMatrix in="SourceAlpha" type="matrix" values="0 0 0 0 0 0 0 0 0 0 0 0 0 0 0 0 0 0 127 0" result="hardAlpha"/>
<feOffset dy="4"/>
<feGaussianBlur stdDeviation="2"/>
<feComposite in2="hardAlpha" operator="out"/>
<feColorMatrix type="matrix" values="0 0 0 0 0 0 0 0 0 0 0 0 0 0 0 0 0 0 0.25 0"/>
<feBlend mode="normal" in2="BackgroundImageFix" result="effect1_dropShadow_54_88"/>
<feBlend mode="normal" in="SourceGraphic" in2="effect1_dropShadow_54_88" result="shape"/>
</filter>
<filter id="filter1_d_54_88" x="135.126" y="87.1075" width="130.282" height="148.865" filterUnits="userSpaceOnUse" color-interpolation-filters="sRGB">
<feFlood flood-opacity="0" result="BackgroundImageFix"/>
<feColorMatrix in="SourceAlpha" type="matrix" values="0 0 0 0 0 0 0 0 0 0 0 0 0 0 0 0 0 0 127 0" result="hardAlpha"/>
<feOffset dy="4"/>
<feGaussianBlur stdDeviation="2"/>
<feComposite in2="hardAlpha" operator="out"/>
<feColorMatrix type="matrix" values="0 0 0 0 0 0 0 0 0 0 0 0 0 0 0 0 0 0 0.25 0"/>
<feBlend mode="normal" in2="BackgroundImageFix" result="effect1_dropShadow_54_88"/>
<feBlend mode="normal" in="SourceGraphic" in2="effect1_dropShadow_54_88" result="shape"/>
</filter>
<filter id="filter2_d_54_88" x="48.8" y="109.506" width="158.48" height="129.86" filterUnits="userSpaceOnUse" color-interpolation-filters="sRGB">
<feFlood flood-opacity="0" result="BackgroundImageFix"/>
<feColorMatrix in="SourceAlpha" type="matrix" values="0 0 0 0 0 0 0 0 0 0 0 0 0 0 0 0 0 0 127 0" result="hardAlpha"/>
<feOffset dy="4"/>
<feGaussianBlur stdDeviation="2"/>
<feComposite in2="hardAlpha" operator="out"/>
<feColorMatrix type="matrix" values="0 0 0 0 0 0 0 0 0 0 0 0 0 0 0 0 0 0 0.25 0"/>
<feBlend mode="normal" in2="BackgroundImageFix" result="effect1_dropShadow_54_88"/>
<feBlend mode="normal" in="SourceGraphic" in2="effect1_dropShadow_54_88" result="shape"/>
</filter>
</defs>
</svg>
