<svg width="39" height="35" viewBox="0 0 39 35" fill="none" xmlns="http://www.w3.org/2000/svg">
<circle cx="17.8123" cy="17.0364" r="16.8123" fill="#4468E2"/>
<g filter="url(#filter0_d_161_1178)">
<mask id="path-2-inside-1_161_1178" fill="white">
<path d="M17.8319 0C27.0914 0 34.6245 7.60839 34.6245 17C34.6245 26.3916 27.0914 34 17.8319 34C8.57238 34 1 26.352 1 17C1 7.64802 8.53315 0 17.8319 0ZM23.8349 11.5315C23.6387 11.6503 23.521 11.9277 23.3248 11.9674C23.4033 11.9277 23.521 11.5315 23.5994 11.4522C23.7171 11.2937 23.9133 11.2145 24.0703 11.0956C24.4626 10.9767 24.8157 10.8974 25.2081 10.8578C25.6004 10.7786 26.032 10.7786 26.3459 11.0956C26.2674 11.0163 26.7775 10.5408 26.856 10.5408C27.0521 10.4219 27.366 10.4615 27.523 10.2634C27.5622 10.2238 27.5622 9.78788 27.5622 9.78788C27.1698 9.8275 27.0521 9.47086 27.0521 9.15384C27.0521 9.19347 26.9737 9.27273 26.8952 9.35198C26.9344 8.99534 26.5028 9.27273 26.3459 9.19347C25.8358 9.07459 25.9143 8.71795 25.7574 8.3613C25.6789 8.16317 25.4435 8.08392 25.365 7.88578C25.2473 7.7669 25.2081 7.44988 25.0119 7.44988C24.8942 7.41026 24.6588 7.92541 24.6196 7.88578C24.4234 7.7669 24.3057 7.92541 24.1487 8.00466C24.031 8.12354 23.9133 8.04429 23.7956 8.12354C24.188 8.00466 23.6387 7.7669 23.4033 7.80653C23.7171 7.72727 23.5602 7.41026 23.4033 7.25175H23.521C23.4817 7.05361 22.854 6.85548 22.6578 6.7366C22.4616 6.61771 21.4023 6.37995 21.2061 6.49883C20.9315 6.65734 21.2453 7.09324 21.2453 7.331C21.2846 7.60839 21.0099 7.64802 21.0099 7.88578C21.0099 8.24242 21.6769 8.2028 21.52 8.71795C21.4023 8.99534 21.0099 9.07459 20.8137 9.31235C20.6568 9.55012 20.853 9.94639 21.0099 10.1049C21.2061 10.2238 20.696 10.4615 20.6568 10.5012C20.2645 10.6597 19.9898 10.1049 19.9113 9.78788C19.8329 9.55011 19.7936 9.27273 19.5582 9.11422C19.4013 9.07459 19.0089 8.99534 18.9305 9.15384C18.7735 8.7972 18.3027 8.67832 18.0281 8.55944C17.5572 8.40093 17.2041 8.40093 16.7333 8.48019C16.8902 8.44056 16.6941 7.7669 16.3409 7.88578C16.4194 7.64802 16.3802 7.41025 16.4194 7.21212C16.4979 7.01398 16.5764 6.85548 16.6941 6.69697C16.7333 6.61772 17.2434 6.10256 17.0864 6.06294C17.4395 6.10256 17.8711 6.14219 18.185 5.82517C18.3812 5.62704 18.4596 5.31002 18.6558 5.07226C18.9305 4.75524 19.2836 5.15152 19.5975 5.19114C20.029 5.19114 19.9898 4.71562 19.7544 4.51748C20.0683 4.51748 19.7936 4.00233 19.6367 3.92308C19.4405 3.84382 18.6951 4.04196 19.1266 4.20047C19.0089 4.16084 18.4989 5.2704 18.185 4.71562C18.1065 4.59674 18.0673 4.16084 17.8711 4.12121C17.6749 4.12121 17.5572 4.31935 17.518 4.43823C17.6357 4.16084 16.8902 3.9627 16.7333 3.9627C17.0864 3.72494 16.8118 3.48718 16.5764 3.3683C16.3802 3.24942 15.8309 3.17016 15.6739 3.32867C15.2816 3.84382 16.1448 3.92308 16.3409 4.04196C16.4194 4.08158 16.6941 4.24009 16.5371 4.35897C16.3802 4.3986 15.9878 4.51748 15.9486 4.59674C15.8309 4.79487 16.1055 5.03263 15.9094 5.23077C15.7132 5.03263 15.7132 4.71562 15.5562 4.47786C15.7524 4.71562 14.7715 4.59674 14.8108 4.59674C14.4577 4.59674 13.9476 4.79487 13.7122 4.47786C13.673 4.3986 13.673 3.88345 13.7907 4.00233C13.5945 3.84382 13.4768 3.68531 13.3198 3.60606C12.6136 3.84382 11.9466 4.16084 11.2796 4.51748C11.3581 4.51748 11.4365 4.51748 11.515 4.47786C11.7112 4.3986 11.8681 4.31935 12.0251 4.20047C12.2605 4.12121 12.7313 3.84382 12.9667 4.04196C12.9667 4.00233 13.0452 3.9627 13.0844 3.9627C13.2021 4.12121 13.3591 4.31935 13.516 4.51748C13.3198 4.3986 13.0452 4.43823 12.849 4.47786C12.6921 4.51748 12.4174 4.55711 12.3782 4.75524C12.4174 4.87413 12.5351 5.03263 12.4567 5.15151C12.182 4.95338 11.9858 4.59674 11.5935 4.55711C11.3973 4.55711 11.2404 4.55711 11.0834 4.59674C9.00397 5.74592 7.23839 7.44988 5.94363 9.51049C6.0221 9.58974 6.1398 9.669 6.21827 9.669C6.41445 9.74825 6.21827 10.3823 6.61063 10.0653C6.76757 10.1445 6.76757 10.303 6.6891 10.4615C6.72833 10.4615 7.5915 11.0163 7.66997 11.0559C7.82692 11.2145 8.06233 11.373 8.10156 11.5315C8.18003 11.69 8.02309 11.8485 7.90539 11.9277C7.86615 11.8881 7.55227 11.5711 7.51303 11.6503C7.43456 11.7692 7.51303 12.3636 7.74845 12.324C7.39533 12.3636 7.55227 13.711 7.4738 13.9883C7.4738 14.028 7.51303 14.028 7.51303 14.028C7.43456 14.2657 7.66997 15.296 8.10156 15.2168C7.82692 15.2564 8.61162 16.2867 8.69009 16.366C9.00397 16.5641 9.31785 16.683 9.51403 16.9604C9.74944 17.2774 9.74944 17.7529 10.0633 17.9907C9.94561 18.2681 10.4949 18.5455 10.4949 18.9417C10.4557 18.9814 10.4164 18.9813 10.3772 18.9813C10.4949 19.2984 10.8873 19.2984 11.0442 19.5758C11.1227 19.7739 11.0442 20.1702 11.3188 20.0909C11.3973 19.6154 11.0442 19.1002 10.8088 18.704C10.6911 18.5058 10.5341 18.3077 10.4557 18.0699C10.338 17.8718 10.2987 17.634 10.2203 17.3963C10.2987 17.4359 10.7696 17.634 10.7303 17.6737C10.5734 18.1096 11.4365 18.9021 11.672 19.1795C11.7504 19.2587 12.2605 19.9324 11.9858 19.9324C12.2605 19.9324 12.6528 20.3683 12.8098 20.5664C13.006 20.9231 12.9667 21.3193 13.0844 21.676C13.2021 22.1119 13.8299 22.31 14.183 22.5082C14.4969 22.6667 14.7323 22.9044 15.0462 23.0233C15.517 23.1818 15.6347 23.0233 16.0271 22.9837C16.5764 22.8648 16.6548 23.4988 17.1256 23.7762C17.4003 23.9347 18.0281 24.1329 18.3027 24.014C18.185 24.0536 18.7735 24.965 18.8128 25.0047C19.0089 25.2821 19.4013 25.4009 19.5975 25.6783C19.6759 25.6387 19.7544 25.5594 19.7544 25.4802C19.6759 25.7179 20.1075 26.1935 20.3037 26.1538C20.5391 26.1142 20.6176 25.6387 20.6176 25.4406C20.186 25.6783 19.7936 25.4802 19.5582 25.0443C19.519 24.9254 19.1659 24.331 19.4405 24.331C19.8721 24.331 19.5975 23.9744 19.5582 23.6573C19.519 23.3403 19.2051 23.1818 19.0482 22.9044C18.9305 23.1818 18.4596 23.1026 18.3419 22.8648C18.3419 22.9441 18.2635 23.0629 18.2635 23.1422C18.185 23.1422 18.0673 23.1818 17.9496 23.1026C17.9888 22.8648 18.0281 22.5082 18.0673 22.2308C18.185 21.8345 18.9305 21.0816 17.9888 21.1212C17.6357 21.1212 17.518 21.2797 17.4003 21.5571C17.2826 21.8345 17.3218 22.0723 17.0472 22.1911C16.851 22.2704 16.184 22.2308 15.9878 22.1119C15.5562 21.8741 15.2816 21.1212 15.2816 20.6853C15.2424 20.0513 15.5562 19.5361 15.2816 18.9813C15.3993 18.8625 15.5562 18.6643 15.6739 18.5455C15.8309 18.4662 15.9878 18.6247 16.0271 18.3473C15.9878 18.3077 15.9094 18.2284 15.8701 18.2284C16.184 18.3473 16.8118 17.9907 17.0864 18.2284C17.2826 18.3473 17.4788 18.3869 17.5572 18.1492C17.5965 18.1096 17.4395 17.8322 17.518 17.6737C17.5572 18.0303 17.8319 18.1096 18.1458 17.8718C18.2635 17.9907 18.6166 17.951 18.852 18.0699C19.1266 18.2284 19.1659 18.4662 19.4405 18.1492C19.5975 18.4266 19.6367 18.4266 19.7152 18.6643C19.7544 18.9021 19.9113 19.5361 20.1075 19.655C20.5783 19.9324 20.4606 19.1795 20.4214 18.9021C20.3822 18.8625 20.3822 18.1492 20.3822 18.1492C19.6759 17.9907 19.9506 17.4359 20.3429 17.0793C20.3822 17 20.8922 16.8415 21.1276 16.683C21.3238 16.4848 21.5592 16.1678 21.4415 15.8904C21.5592 15.8904 21.6377 15.8112 21.6769 15.6923C21.6377 15.6527 21.363 15.4545 21.3238 15.4545C21.4807 15.3753 21.4415 15.2564 21.363 15.0979C21.5985 14.979 21.4807 14.7413 21.6769 14.662C21.9516 14.979 22.4224 14.6224 22.187 14.345C22.3832 14.028 22.8932 14.1865 23.0109 13.9091C23.364 13.9883 23.1286 13.5524 23.2856 13.3147C23.4425 13.1165 23.7171 13.1165 23.9133 12.9977C23.9133 13.0373 24.4626 12.7203 24.2664 12.6807C24.6588 12.7203 25.4043 12.324 24.8157 12.007C24.8942 11.8089 24.6196 11.7296 24.4234 11.6503C24.5803 11.6107 24.7765 11.7296 24.8942 11.6107C25.2081 11.4126 25.0119 11.3333 24.7765 11.2541C24.4626 11.1748 24.0703 11.373 23.8349 11.5315ZM20.2645 30.9487C23.2463 30.3939 25.9143 28.8881 27.9153 26.7483C27.7976 26.6294 27.5622 26.669 27.366 26.5897C27.2091 26.5105 27.0914 26.4312 26.856 26.3916C26.8952 25.9557 26.4244 25.7972 26.1105 25.5594C25.8358 25.3613 25.6397 25.1235 25.2473 25.2028C25.2081 25.2028 24.7765 25.3613 24.855 25.4802C24.5411 25.2028 24.4234 25.0839 24.0703 24.965C23.7171 24.8858 23.4817 24.4103 23.1286 24.8065C22.9324 25.0047 23.0109 25.2821 22.9324 25.4406C22.6578 25.2028 23.2071 24.9254 22.9717 24.648C22.7363 24.331 22.2654 24.8462 22.03 24.965C21.9123 25.0839 21.7554 25.1235 21.6769 25.282C21.5592 25.4009 21.52 25.6387 21.4415 25.7576C21.363 25.5991 21.0099 25.6387 20.9707 25.5198C21.0492 26.035 21.0492 26.5897 21.1669 27.1049C21.2453 27.4219 21.1669 27.9371 20.8922 28.1748C20.6176 28.4126 20.3037 28.69 20.2645 29.0862C20.2252 29.324 20.3037 29.5618 20.5391 29.641C20.5391 29.958 20.186 30.2354 20.186 30.5921C20.186 30.5921 20.2252 30.8298 20.2645 30.9487Z"/>
</mask>
<path d="M17.8319 0C27.0914 0 34.6245 7.60839 34.6245 17C34.6245 26.3916 27.0914 34 17.8319 34C8.57238 34 1 26.352 1 17C1 7.64802 8.53315 0 17.8319 0ZM23.8349 11.5315C23.6387 11.6503 23.521 11.9277 23.3248 11.9674C23.4033 11.9277 23.521 11.5315 23.5994 11.4522C23.7171 11.2937 23.9133 11.2145 24.0703 11.0956C24.4626 10.9767 24.8157 10.8974 25.2081 10.8578C25.6004 10.7786 26.032 10.7786 26.3459 11.0956C26.2674 11.0163 26.7775 10.5408 26.856 10.5408C27.0521 10.4219 27.366 10.4615 27.523 10.2634C27.5622 10.2238 27.5622 9.78788 27.5622 9.78788C27.1698 9.8275 27.0521 9.47086 27.0521 9.15384C27.0521 9.19347 26.9737 9.27273 26.8952 9.35198C26.9344 8.99534 26.5028 9.27273 26.3459 9.19347C25.8358 9.07459 25.9143 8.71795 25.7574 8.3613C25.6789 8.16317 25.4435 8.08392 25.365 7.88578C25.2473 7.7669 25.2081 7.44988 25.0119 7.44988C24.8942 7.41026 24.6588 7.92541 24.6196 7.88578C24.4234 7.7669 24.3057 7.92541 24.1487 8.00466C24.031 8.12354 23.9133 8.04429 23.7956 8.12354C24.188 8.00466 23.6387 7.7669 23.4033 7.80653C23.7171 7.72727 23.5602 7.41026 23.4033 7.25175H23.521C23.4817 7.05361 22.854 6.85548 22.6578 6.7366C22.4616 6.61771 21.4023 6.37995 21.2061 6.49883C20.9315 6.65734 21.2453 7.09324 21.2453 7.331C21.2846 7.60839 21.0099 7.64802 21.0099 7.88578C21.0099 8.24242 21.6769 8.2028 21.52 8.71795C21.4023 8.99534 21.0099 9.07459 20.8137 9.31235C20.6568 9.55012 20.853 9.94639 21.0099 10.1049C21.2061 10.2238 20.696 10.4615 20.6568 10.5012C20.2645 10.6597 19.9898 10.1049 19.9113 9.78788C19.8329 9.55011 19.7936 9.27273 19.5582 9.11422C19.4013 9.07459 19.0089 8.99534 18.9305 9.15384C18.7735 8.7972 18.3027 8.67832 18.0281 8.55944C17.5572 8.40093 17.2041 8.40093 16.7333 8.48019C16.8902 8.44056 16.6941 7.7669 16.3409 7.88578C16.4194 7.64802 16.3802 7.41025 16.4194 7.21212C16.4979 7.01398 16.5764 6.85548 16.6941 6.69697C16.7333 6.61772 17.2434 6.10256 17.0864 6.06294C17.4395 6.10256 17.8711 6.14219 18.185 5.82517C18.3812 5.62704 18.4596 5.31002 18.6558 5.07226C18.9305 4.75524 19.2836 5.15152 19.5975 5.19114C20.029 5.19114 19.9898 4.71562 19.7544 4.51748C20.0683 4.51748 19.7936 4.00233 19.6367 3.92308C19.4405 3.84382 18.6951 4.04196 19.1266 4.20047C19.0089 4.16084 18.4989 5.2704 18.185 4.71562C18.1065 4.59674 18.0673 4.16084 17.8711 4.12121C17.6749 4.12121 17.5572 4.31935 17.518 4.43823C17.6357 4.16084 16.8902 3.9627 16.7333 3.9627C17.0864 3.72494 16.8118 3.48718 16.5764 3.3683C16.3802 3.24942 15.8309 3.17016 15.6739 3.32867C15.2816 3.84382 16.1448 3.92308 16.3409 4.04196C16.4194 4.08158 16.6941 4.24009 16.5371 4.35897C16.3802 4.3986 15.9878 4.51748 15.9486 4.59674C15.8309 4.79487 16.1055 5.03263 15.9094 5.23077C15.7132 5.03263 15.7132 4.71562 15.5562 4.47786C15.7524 4.71562 14.7715 4.59674 14.8108 4.59674C14.4577 4.59674 13.9476 4.79487 13.7122 4.47786C13.673 4.3986 13.673 3.88345 13.7907 4.00233C13.5945 3.84382 13.4768 3.68531 13.3198 3.60606C12.6136 3.84382 11.9466 4.16084 11.2796 4.51748C11.3581 4.51748 11.4365 4.51748 11.515 4.47786C11.7112 4.3986 11.8681 4.31935 12.0251 4.20047C12.2605 4.12121 12.7313 3.84382 12.9667 4.04196C12.9667 4.00233 13.0452 3.9627 13.0844 3.9627C13.2021 4.12121 13.3591 4.31935 13.516 4.51748C13.3198 4.3986 13.0452 4.43823 12.849 4.47786C12.6921 4.51748 12.4174 4.55711 12.3782 4.75524C12.4174 4.87413 12.5351 5.03263 12.4567 5.15151C12.182 4.95338 11.9858 4.59674 11.5935 4.55711C11.3973 4.55711 11.2404 4.55711 11.0834 4.59674C9.00397 5.74592 7.23839 7.44988 5.94363 9.51049C6.0221 9.58974 6.1398 9.669 6.21827 9.669C6.41445 9.74825 6.21827 10.3823 6.61063 10.0653C6.76757 10.1445 6.76757 10.303 6.6891 10.4615C6.72833 10.4615 7.5915 11.0163 7.66997 11.0559C7.82692 11.2145 8.06233 11.373 8.10156 11.5315C8.18003 11.69 8.02309 11.8485 7.90539 11.9277C7.86615 11.8881 7.55227 11.5711 7.51303 11.6503C7.43456 11.7692 7.51303 12.3636 7.74845 12.324C7.39533 12.3636 7.55227 13.711 7.4738 13.9883C7.4738 14.028 7.51303 14.028 7.51303 14.028C7.43456 14.2657 7.66997 15.296 8.10156 15.2168C7.82692 15.2564 8.61162 16.2867 8.69009 16.366C9.00397 16.5641 9.31785 16.683 9.51403 16.9604C9.74944 17.2774 9.74944 17.7529 10.0633 17.9907C9.94561 18.2681 10.4949 18.5455 10.4949 18.9417C10.4557 18.9814 10.4164 18.9813 10.3772 18.9813C10.4949 19.2984 10.8873 19.2984 11.0442 19.5758C11.1227 19.7739 11.0442 20.1702 11.3188 20.0909C11.3973 19.6154 11.0442 19.1002 10.8088 18.704C10.6911 18.5058 10.5341 18.3077 10.4557 18.0699C10.338 17.8718 10.2987 17.634 10.2203 17.3963C10.2987 17.4359 10.7696 17.634 10.7303 17.6737C10.5734 18.1096 11.4365 18.9021 11.672 19.1795C11.7504 19.2587 12.2605 19.9324 11.9858 19.9324C12.2605 19.9324 12.6528 20.3683 12.8098 20.5664C13.006 20.9231 12.9667 21.3193 13.0844 21.676C13.2021 22.1119 13.8299 22.31 14.183 22.5082C14.4969 22.6667 14.7323 22.9044 15.0462 23.0233C15.517 23.1818 15.6347 23.0233 16.0271 22.9837C16.5764 22.8648 16.6548 23.4988 17.1256 23.7762C17.4003 23.9347 18.0281 24.1329 18.3027 24.014C18.185 24.0536 18.7735 24.965 18.8128 25.0047C19.0089 25.2821 19.4013 25.4009 19.5975 25.6783C19.6759 25.6387 19.7544 25.5594 19.7544 25.4802C19.6759 25.7179 20.1075 26.1935 20.3037 26.1538C20.5391 26.1142 20.6176 25.6387 20.6176 25.4406C20.186 25.6783 19.7936 25.4802 19.5582 25.0443C19.519 24.9254 19.1659 24.331 19.4405 24.331C19.8721 24.331 19.5975 23.9744 19.5582 23.6573C19.519 23.3403 19.2051 23.1818 19.0482 22.9044C18.9305 23.1818 18.4596 23.1026 18.3419 22.8648C18.3419 22.9441 18.2635 23.0629 18.2635 23.1422C18.185 23.1422 18.0673 23.1818 17.9496 23.1026C17.9888 22.8648 18.0281 22.5082 18.0673 22.2308C18.185 21.8345 18.9305 21.0816 17.9888 21.1212C17.6357 21.1212 17.518 21.2797 17.4003 21.5571C17.2826 21.8345 17.3218 22.0723 17.0472 22.1911C16.851 22.2704 16.184 22.2308 15.9878 22.1119C15.5562 21.8741 15.2816 21.1212 15.2816 20.6853C15.2424 20.0513 15.5562 19.5361 15.2816 18.9813C15.3993 18.8625 15.5562 18.6643 15.6739 18.5455C15.8309 18.4662 15.9878 18.6247 16.0271 18.3473C15.9878 18.3077 15.9094 18.2284 15.8701 18.2284C16.184 18.3473 16.8118 17.9907 17.0864 18.2284C17.2826 18.3473 17.4788 18.3869 17.5572 18.1492C17.5965 18.1096 17.4395 17.8322 17.518 17.6737C17.5572 18.0303 17.8319 18.1096 18.1458 17.8718C18.2635 17.9907 18.6166 17.951 18.852 18.0699C19.1266 18.2284 19.1659 18.4662 19.4405 18.1492C19.5975 18.4266 19.6367 18.4266 19.7152 18.6643C19.7544 18.9021 19.9113 19.5361 20.1075 19.655C20.5783 19.9324 20.4606 19.1795 20.4214 18.9021C20.3822 18.8625 20.3822 18.1492 20.3822 18.1492C19.6759 17.9907 19.9506 17.4359 20.3429 17.0793C20.3822 17 20.8922 16.8415 21.1276 16.683C21.3238 16.4848 21.5592 16.1678 21.4415 15.8904C21.5592 15.8904 21.6377 15.8112 21.6769 15.6923C21.6377 15.6527 21.363 15.4545 21.3238 15.4545C21.4807 15.3753 21.4415 15.2564 21.363 15.0979C21.5985 14.979 21.4807 14.7413 21.6769 14.662C21.9516 14.979 22.4224 14.6224 22.187 14.345C22.3832 14.028 22.8932 14.1865 23.0109 13.9091C23.364 13.9883 23.1286 13.5524 23.2856 13.3147C23.4425 13.1165 23.7171 13.1165 23.9133 12.9977C23.9133 13.0373 24.4626 12.7203 24.2664 12.6807C24.6588 12.7203 25.4043 12.324 24.8157 12.007C24.8942 11.8089 24.6196 11.7296 24.4234 11.6503C24.5803 11.6107 24.7765 11.7296 24.8942 11.6107C25.2081 11.4126 25.0119 11.3333 24.7765 11.2541C24.4626 11.1748 24.0703 11.373 23.8349 11.5315ZM20.2645 30.9487C23.2463 30.3939 25.9143 28.8881 27.9153 26.7483C27.7976 26.6294 27.5622 26.669 27.366 26.5897C27.2091 26.5105 27.0914 26.4312 26.856 26.3916C26.8952 25.9557 26.4244 25.7972 26.1105 25.5594C25.8358 25.3613 25.6397 25.1235 25.2473 25.2028C25.2081 25.2028 24.7765 25.3613 24.855 25.4802C24.5411 25.2028 24.4234 25.0839 24.0703 24.965C23.7171 24.8858 23.4817 24.4103 23.1286 24.8065C22.9324 25.0047 23.0109 25.2821 22.9324 25.4406C22.6578 25.2028 23.2071 24.9254 22.9717 24.648C22.7363 24.331 22.2654 24.8462 22.03 24.965C21.9123 25.0839 21.7554 25.1235 21.6769 25.282C21.5592 25.4009 21.52 25.6387 21.4415 25.7576C21.363 25.5991 21.0099 25.6387 20.9707 25.5198C21.0492 26.035 21.0492 26.5897 21.1669 27.1049C21.2453 27.4219 21.1669 27.9371 20.8922 28.1748C20.6176 28.4126 20.3037 28.69 20.2645 29.0862C20.2252 29.324 20.3037 29.5618 20.5391 29.641C20.5391 29.958 20.186 30.2354 20.186 30.5921C20.186 30.5921 20.2252 30.8298 20.2645 30.9487Z" fill="#08143D"/>
<path d="M17.8319 0C27.0914 0 34.6245 7.60839 34.6245 17C34.6245 26.3916 27.0914 34 17.8319 34C8.57238 34 1 26.352 1 17C1 7.64802 8.53315 0 17.8319 0ZM23.8349 11.5315C23.6387 11.6503 23.521 11.9277 23.3248 11.9674C23.4033 11.9277 23.521 11.5315 23.5994 11.4522C23.7171 11.2937 23.9133 11.2145 24.0703 11.0956C24.4626 10.9767 24.8157 10.8974 25.2081 10.8578C25.6004 10.7786 26.032 10.7786 26.3459 11.0956C26.2674 11.0163 26.7775 10.5408 26.856 10.5408C27.0521 10.4219 27.366 10.4615 27.523 10.2634C27.5622 10.2238 27.5622 9.78788 27.5622 9.78788C27.1698 9.8275 27.0521 9.47086 27.0521 9.15384C27.0521 9.19347 26.9737 9.27273 26.8952 9.35198C26.9344 8.99534 26.5028 9.27273 26.3459 9.19347C25.8358 9.07459 25.9143 8.71795 25.7574 8.3613C25.6789 8.16317 25.4435 8.08392 25.365 7.88578C25.2473 7.7669 25.2081 7.44988 25.0119 7.44988C24.8942 7.41026 24.6588 7.92541 24.6196 7.88578C24.4234 7.7669 24.3057 7.92541 24.1487 8.00466C24.031 8.12354 23.9133 8.04429 23.7956 8.12354C24.188 8.00466 23.6387 7.7669 23.4033 7.80653C23.7171 7.72727 23.5602 7.41026 23.4033 7.25175H23.521C23.4817 7.05361 22.854 6.85548 22.6578 6.7366C22.4616 6.61771 21.4023 6.37995 21.2061 6.49883C20.9315 6.65734 21.2453 7.09324 21.2453 7.331C21.2846 7.60839 21.0099 7.64802 21.0099 7.88578C21.0099 8.24242 21.6769 8.2028 21.52 8.71795C21.4023 8.99534 21.0099 9.07459 20.8137 9.31235C20.6568 9.55012 20.853 9.94639 21.0099 10.1049C21.2061 10.2238 20.696 10.4615 20.6568 10.5012C20.2645 10.6597 19.9898 10.1049 19.9113 9.78788C19.8329 9.55011 19.7936 9.27273 19.5582 9.11422C19.4013 9.07459 19.0089 8.99534 18.9305 9.15384C18.7735 8.7972 18.3027 8.67832 18.0281 8.55944C17.5572 8.40093 17.2041 8.40093 16.7333 8.48019C16.8902 8.44056 16.6941 7.7669 16.3409 7.88578C16.4194 7.64802 16.3802 7.41025 16.4194 7.21212C16.4979 7.01398 16.5764 6.85548 16.6941 6.69697C16.7333 6.61772 17.2434 6.10256 17.0864 6.06294C17.4395 6.10256 17.8711 6.14219 18.185 5.82517C18.3812 5.62704 18.4596 5.31002 18.6558 5.07226C18.9305 4.75524 19.2836 5.15152 19.5975 5.19114C20.029 5.19114 19.9898 4.71562 19.7544 4.51748C20.0683 4.51748 19.7936 4.00233 19.6367 3.92308C19.4405 3.84382 18.6951 4.04196 19.1266 4.20047C19.0089 4.16084 18.4989 5.2704 18.185 4.71562C18.1065 4.59674 18.0673 4.16084 17.8711 4.12121C17.6749 4.12121 17.5572 4.31935 17.518 4.43823C17.6357 4.16084 16.8902 3.9627 16.7333 3.9627C17.0864 3.72494 16.8118 3.48718 16.5764 3.3683C16.3802 3.24942 15.8309 3.17016 15.6739 3.32867C15.2816 3.84382 16.1448 3.92308 16.3409 4.04196C16.4194 4.08158 16.6941 4.24009 16.5371 4.35897C16.3802 4.3986 15.9878 4.51748 15.9486 4.59674C15.8309 4.79487 16.1055 5.03263 15.9094 5.23077C15.7132 5.03263 15.7132 4.71562 15.5562 4.47786C15.7524 4.71562 14.7715 4.59674 14.8108 4.59674C14.4577 4.59674 13.9476 4.79487 13.7122 4.47786C13.673 4.3986 13.673 3.88345 13.7907 4.00233C13.5945 3.84382 13.4768 3.68531 13.3198 3.60606C12.6136 3.84382 11.9466 4.16084 11.2796 4.51748C11.3581 4.51748 11.4365 4.51748 11.515 4.47786C11.7112 4.3986 11.8681 4.31935 12.0251 4.20047C12.2605 4.12121 12.7313 3.84382 12.9667 4.04196C12.9667 4.00233 13.0452 3.9627 13.0844 3.9627C13.2021 4.12121 13.3591 4.31935 13.516 4.51748C13.3198 4.3986 13.0452 4.43823 12.849 4.47786C12.6921 4.51748 12.4174 4.55711 12.3782 4.75524C12.4174 4.87413 12.5351 5.03263 12.4567 5.15151C12.182 4.95338 11.9858 4.59674 11.5935 4.55711C11.3973 4.55711 11.2404 4.55711 11.0834 4.59674C9.00397 5.74592 7.23839 7.44988 5.94363 9.51049C6.0221 9.58974 6.1398 9.669 6.21827 9.669C6.41445 9.74825 6.21827 10.3823 6.61063 10.0653C6.76757 10.1445 6.76757 10.303 6.6891 10.4615C6.72833 10.4615 7.5915 11.0163 7.66997 11.0559C7.82692 11.2145 8.06233 11.373 8.10156 11.5315C8.18003 11.69 8.02309 11.8485 7.90539 11.9277C7.86615 11.8881 7.55227 11.5711 7.51303 11.6503C7.43456 11.7692 7.51303 12.3636 7.74845 12.324C7.39533 12.3636 7.55227 13.711 7.4738 13.9883C7.4738 14.028 7.51303 14.028 7.51303 14.028C7.43456 14.2657 7.66997 15.296 8.10156 15.2168C7.82692 15.2564 8.61162 16.2867 8.69009 16.366C9.00397 16.5641 9.31785 16.683 9.51403 16.9604C9.74944 17.2774 9.74944 17.7529 10.0633 17.9907C9.94561 18.2681 10.4949 18.5455 10.4949 18.9417C10.4557 18.9814 10.4164 18.9813 10.3772 18.9813C10.4949 19.2984 10.8873 19.2984 11.0442 19.5758C11.1227 19.7739 11.0442 20.1702 11.3188 20.0909C11.3973 19.6154 11.0442 19.1002 10.8088 18.704C10.6911 18.5058 10.5341 18.3077 10.4557 18.0699C10.338 17.8718 10.2987 17.634 10.2203 17.3963C10.2987 17.4359 10.7696 17.634 10.7303 17.6737C10.5734 18.1096 11.4365 18.9021 11.672 19.1795C11.7504 19.2587 12.2605 19.9324 11.9858 19.9324C12.2605 19.9324 12.6528 20.3683 12.8098 20.5664C13.006 20.9231 12.9667 21.3193 13.0844 21.676C13.2021 22.1119 13.8299 22.31 14.183 22.5082C14.4969 22.6667 14.7323 22.9044 15.0462 23.0233C15.517 23.1818 15.6347 23.0233 16.0271 22.9837C16.5764 22.8648 16.6548 23.4988 17.1256 23.7762C17.4003 23.9347 18.0281 24.1329 18.3027 24.014C18.185 24.0536 18.7735 24.965 18.8128 25.0047C19.0089 25.2821 19.4013 25.4009 19.5975 25.6783C19.6759 25.6387 19.7544 25.5594 19.7544 25.4802C19.6759 25.7179 20.1075 26.1935 20.3037 26.1538C20.5391 26.1142 20.6176 25.6387 20.6176 25.4406C20.186 25.6783 19.7936 25.4802 19.5582 25.0443C19.519 24.9254 19.1659 24.331 19.4405 24.331C19.8721 24.331 19.5975 23.9744 19.5582 23.6573C19.519 23.3403 19.2051 23.1818 19.0482 22.9044C18.9305 23.1818 18.4596 23.1026 18.3419 22.8648C18.3419 22.9441 18.2635 23.0629 18.2635 23.1422C18.185 23.1422 18.0673 23.1818 17.9496 23.1026C17.9888 22.8648 18.0281 22.5082 18.0673 22.2308C18.185 21.8345 18.9305 21.0816 17.9888 21.1212C17.6357 21.1212 17.518 21.2797 17.4003 21.5571C17.2826 21.8345 17.3218 22.0723 17.0472 22.1911C16.851 22.2704 16.184 22.2308 15.9878 22.1119C15.5562 21.8741 15.2816 21.1212 15.2816 20.6853C15.2424 20.0513 15.5562 19.5361 15.2816 18.9813C15.3993 18.8625 15.5562 18.6643 15.6739 18.5455C15.8309 18.4662 15.9878 18.6247 16.0271 18.3473C15.9878 18.3077 15.9094 18.2284 15.8701 18.2284C16.184 18.3473 16.8118 17.9907 17.0864 18.2284C17.2826 18.3473 17.4788 18.3869 17.5572 18.1492C17.5965 18.1096 17.4395 17.8322 17.518 17.6737C17.5572 18.0303 17.8319 18.1096 18.1458 17.8718C18.2635 17.9907 18.6166 17.951 18.852 18.0699C19.1266 18.2284 19.1659 18.4662 19.4405 18.1492C19.5975 18.4266 19.6367 18.4266 19.7152 18.6643C19.7544 18.9021 19.9113 19.5361 20.1075 19.655C20.5783 19.9324 20.4606 19.1795 20.4214 18.9021C20.3822 18.8625 20.3822 18.1492 20.3822 18.1492C19.6759 17.9907 19.9506 17.4359 20.3429 17.0793C20.3822 17 20.8922 16.8415 21.1276 16.683C21.3238 16.4848 21.5592 16.1678 21.4415 15.8904C21.5592 15.8904 21.6377 15.8112 21.6769 15.6923C21.6377 15.6527 21.363 15.4545 21.3238 15.4545C21.4807 15.3753 21.4415 15.2564 21.363 15.0979C21.5985 14.979 21.4807 14.7413 21.6769 14.662C21.9516 14.979 22.4224 14.6224 22.187 14.345C22.3832 14.028 22.8932 14.1865 23.0109 13.9091C23.364 13.9883 23.1286 13.5524 23.2856 13.3147C23.4425 13.1165 23.7171 13.1165 23.9133 12.9977C23.9133 13.0373 24.4626 12.7203 24.2664 12.6807C24.6588 12.7203 25.4043 12.324 24.8157 12.007C24.8942 11.8089 24.6196 11.7296 24.4234 11.6503C24.5803 11.6107 24.7765 11.7296 24.8942 11.6107C25.2081 11.4126 25.0119 11.3333 24.7765 11.2541C24.4626 11.1748 24.0703 11.373 23.8349 11.5315ZM20.2645 30.9487C23.2463 30.3939 25.9143 28.8881 27.9153 26.7483C27.7976 26.6294 27.5622 26.669 27.366 26.5897C27.2091 26.5105 27.0914 26.4312 26.856 26.3916C26.8952 25.9557 26.4244 25.7972 26.1105 25.5594C25.8358 25.3613 25.6397 25.1235 25.2473 25.2028C25.2081 25.2028 24.7765 25.3613 24.855 25.4802C24.5411 25.2028 24.4234 25.0839 24.0703 24.965C23.7171 24.8858 23.4817 24.4103 23.1286 24.8065C22.9324 25.0047 23.0109 25.2821 22.9324 25.4406C22.6578 25.2028 23.2071 24.9254 22.9717 24.648C22.7363 24.331 22.2654 24.8462 22.03 24.965C21.9123 25.0839 21.7554 25.1235 21.6769 25.282C21.5592 25.4009 21.52 25.6387 21.4415 25.7576C21.363 25.5991 21.0099 25.6387 20.9707 25.5198C21.0492 26.035 21.0492 26.5897 21.1669 27.1049C21.2453 27.4219 21.1669 27.9371 20.8922 28.1748C20.6176 28.4126 20.3037 28.69 20.2645 29.0862C20.2252 29.324 20.3037 29.5618 20.5391 29.641C20.5391 29.958 20.186 30.2354 20.186 30.5921C20.186 30.5921 20.2252 30.8298 20.2645 30.9487Z" stroke="black" stroke-width="0.224163" mask="url(#path-2-inside-1_161_1178)"/>
</g>
<g filter="url(#filter1_d_161_1178)">
<path d="M16.221 23.4548L21.0388 9.54197L24.4218 9.96688C26.1433 10.1831 27.4325 10.8195 28.2893 11.876C29.1462 12.9325 29.4531 14.4282 29.21 16.3633C29.086 17.3508 28.8485 18.2699 28.4977 19.1205C28.1619 19.9594 27.716 20.7031 27.1601 21.3518C26.6176 22.0021 25.9733 22.5447 25.2273 22.9797C24.483 23.4013 23.6529 23.6969 22.737 23.8665C21.8227 24.0228 20.825 24.033 19.7441 23.8973L16.221 23.4548ZM20.0378 22.3685C20.8652 22.4724 21.6267 22.4529 22.3225 22.3098C23.0332 22.1551 23.6757 21.8969 24.2498 21.5352C24.8239 21.1735 25.3213 20.7209 25.742 20.1773C26.1627 19.6337 26.5042 19.0192 26.7665 18.3337C27.0422 17.6499 27.2303 16.9076 27.3309 16.1069C27.5153 14.639 27.2941 13.5403 26.6672 12.8109C26.0554 12.0698 25.169 11.6264 24.008 11.4806L22.3065 11.2669L18.5165 22.1774L20.0378 22.3685Z" fill="white"/>
</g>
<g filter="url(#filter2_d_161_1178)">
<path d="M22.3271 12.556H23.3359L18.3325 26.2143H18.0097L14.923 17.9427L11.8968 26.2143H11.574L6.46981 12.556H8.66886L12.2196 23.4907L14.4792 16.7524L12.9055 12.556H15.1046L18.6553 23.4907L22.3271 12.556Z" fill="white"/>
</g>
<circle cx="17.8123" cy="17.0364" r="16.8123" fill="#4468E2"/>
<g filter="url(#filter3_d_161_1178)">
<mask id="path-6-inside-2_161_1178" fill="white">
<path d="M17.8319 0C27.0914 0 34.6245 7.60839 34.6245 17C34.6245 26.3916 27.0914 34 17.8319 34C8.57238 34 1 26.352 1 17C1 7.64802 8.53315 0 17.8319 0ZM23.8349 11.5315C23.6387 11.6503 23.521 11.9277 23.3248 11.9674C23.4033 11.9277 23.521 11.5315 23.5994 11.4522C23.7171 11.2937 23.9133 11.2145 24.0703 11.0956C24.4626 10.9767 24.8157 10.8974 25.2081 10.8578C25.6004 10.7786 26.032 10.7786 26.3459 11.0956C26.2674 11.0163 26.7775 10.5408 26.856 10.5408C27.0521 10.4219 27.366 10.4615 27.523 10.2634C27.5622 10.2238 27.5622 9.78788 27.5622 9.78788C27.1698 9.8275 27.0521 9.47086 27.0521 9.15384C27.0521 9.19347 26.9737 9.27273 26.8952 9.35198C26.9344 8.99534 26.5028 9.27273 26.3459 9.19347C25.8358 9.07459 25.9143 8.71795 25.7574 8.3613C25.6789 8.16317 25.4435 8.08392 25.365 7.88578C25.2473 7.7669 25.2081 7.44988 25.0119 7.44988C24.8942 7.41026 24.6588 7.92541 24.6196 7.88578C24.4234 7.7669 24.3057 7.92541 24.1487 8.00466C24.031 8.12354 23.9133 8.04429 23.7956 8.12354C24.188 8.00466 23.6387 7.7669 23.4033 7.80653C23.7171 7.72727 23.5602 7.41026 23.4033 7.25175H23.521C23.4817 7.05361 22.854 6.85548 22.6578 6.7366C22.4616 6.61771 21.4023 6.37995 21.2061 6.49883C20.9315 6.65734 21.2453 7.09324 21.2453 7.331C21.2846 7.60839 21.0099 7.64802 21.0099 7.88578C21.0099 8.24242 21.6769 8.2028 21.52 8.71795C21.4023 8.99534 21.0099 9.07459 20.8137 9.31235C20.6568 9.55012 20.853 9.94639 21.0099 10.1049C21.2061 10.2238 20.696 10.4615 20.6568 10.5012C20.2645 10.6597 19.9898 10.1049 19.9113 9.78788C19.8329 9.55011 19.7936 9.27273 19.5582 9.11422C19.4013 9.07459 19.0089 8.99534 18.9305 9.15384C18.7735 8.7972 18.3027 8.67832 18.0281 8.55944C17.5572 8.40093 17.2041 8.40093 16.7333 8.48019C16.8902 8.44056 16.6941 7.7669 16.3409 7.88578C16.4194 7.64802 16.3802 7.41025 16.4194 7.21212C16.4979 7.01398 16.5764 6.85548 16.6941 6.69697C16.7333 6.61772 17.2434 6.10256 17.0864 6.06294C17.4395 6.10256 17.8711 6.14219 18.185 5.82517C18.3812 5.62704 18.4596 5.31002 18.6558 5.07226C18.9305 4.75524 19.2836 5.15152 19.5975 5.19114C20.029 5.19114 19.9898 4.71562 19.7544 4.51748C20.0683 4.51748 19.7936 4.00233 19.6367 3.92308C19.4405 3.84382 18.6951 4.04196 19.1266 4.20047C19.0089 4.16084 18.4989 5.2704 18.185 4.71562C18.1065 4.59674 18.0673 4.16084 17.8711 4.12121C17.6749 4.12121 17.5572 4.31935 17.518 4.43823C17.6357 4.16084 16.8902 3.9627 16.7333 3.9627C17.0864 3.72494 16.8118 3.48718 16.5764 3.3683C16.3802 3.24942 15.8309 3.17016 15.6739 3.32867C15.2816 3.84382 16.1448 3.92308 16.3409 4.04196C16.4194 4.08158 16.6941 4.24009 16.5371 4.35897C16.3802 4.3986 15.9878 4.51748 15.9486 4.59674C15.8309 4.79487 16.1055 5.03263 15.9094 5.23077C15.7132 5.03263 15.7132 4.71562 15.5562 4.47786C15.7524 4.71562 14.7715 4.59674 14.8108 4.59674C14.4577 4.59674 13.9476 4.79487 13.7122 4.47786C13.673 4.3986 13.673 3.88345 13.7907 4.00233C13.5945 3.84382 13.4768 3.68531 13.3198 3.60606C12.6136 3.84382 11.9466 4.16084 11.2796 4.51748C11.3581 4.51748 11.4365 4.51748 11.515 4.47786C11.7112 4.3986 11.8681 4.31935 12.0251 4.20047C12.2605 4.12121 12.7313 3.84382 12.9667 4.04196C12.9667 4.00233 13.0452 3.9627 13.0844 3.9627C13.2021 4.12121 13.3591 4.31935 13.516 4.51748C13.3198 4.3986 13.0452 4.43823 12.849 4.47786C12.6921 4.51748 12.4174 4.55711 12.3782 4.75524C12.4174 4.87413 12.5351 5.03263 12.4567 5.15151C12.182 4.95338 11.9858 4.59674 11.5935 4.55711C11.3973 4.55711 11.2404 4.55711 11.0834 4.59674C9.00397 5.74592 7.23839 7.44988 5.94363 9.51049C6.0221 9.58974 6.1398 9.669 6.21827 9.669C6.41445 9.74825 6.21827 10.3823 6.61063 10.0653C6.76757 10.1445 6.76757 10.303 6.6891 10.4615C6.72833 10.4615 7.5915 11.0163 7.66997 11.0559C7.82692 11.2145 8.06233 11.373 8.10156 11.5315C8.18003 11.69 8.02309 11.8485 7.90539 11.9277C7.86615 11.8881 7.55227 11.5711 7.51303 11.6503C7.43456 11.7692 7.51303 12.3636 7.74845 12.324C7.39533 12.3636 7.55227 13.711 7.4738 13.9883C7.4738 14.028 7.51303 14.028 7.51303 14.028C7.43456 14.2657 7.66997 15.296 8.10156 15.2168C7.82692 15.2564 8.61162 16.2867 8.69009 16.366C9.00397 16.5641 9.31785 16.683 9.51403 16.9604C9.74944 17.2774 9.74944 17.7529 10.0633 17.9907C9.94561 18.2681 10.4949 18.5455 10.4949 18.9417C10.4557 18.9814 10.4164 18.9813 10.3772 18.9813C10.4949 19.2984 10.8873 19.2984 11.0442 19.5758C11.1227 19.7739 11.0442 20.1702 11.3188 20.0909C11.3973 19.6154 11.0442 19.1002 10.8088 18.704C10.6911 18.5058 10.5341 18.3077 10.4557 18.0699C10.338 17.8718 10.2987 17.634 10.2203 17.3963C10.2987 17.4359 10.7696 17.634 10.7303 17.6737C10.5734 18.1096 11.4365 18.9021 11.672 19.1795C11.7504 19.2587 12.2605 19.9324 11.9858 19.9324C12.2605 19.9324 12.6528 20.3683 12.8098 20.5664C13.006 20.9231 12.9667 21.3193 13.0844 21.676C13.2021 22.1119 13.8299 22.31 14.183 22.5082C14.4969 22.6667 14.7323 22.9044 15.0462 23.0233C15.517 23.1818 15.6347 23.0233 16.0271 22.9837C16.5764 22.8648 16.6548 23.4988 17.1256 23.7762C17.4003 23.9347 18.0281 24.1329 18.3027 24.014C18.185 24.0536 18.7735 24.965 18.8128 25.0047C19.0089 25.2821 19.4013 25.4009 19.5975 25.6783C19.6759 25.6387 19.7544 25.5594 19.7544 25.4802C19.6759 25.7179 20.1075 26.1935 20.3037 26.1538C20.5391 26.1142 20.6176 25.6387 20.6176 25.4406C20.186 25.6783 19.7936 25.4802 19.5582 25.0443C19.519 24.9254 19.1659 24.331 19.4405 24.331C19.8721 24.331 19.5975 23.9744 19.5582 23.6573C19.519 23.3403 19.2051 23.1818 19.0482 22.9044C18.9305 23.1818 18.4596 23.1026 18.3419 22.8648C18.3419 22.9441 18.2635 23.0629 18.2635 23.1422C18.185 23.1422 18.0673 23.1818 17.9496 23.1026C17.9888 22.8648 18.0281 22.5082 18.0673 22.2308C18.185 21.8345 18.9305 21.0816 17.9888 21.1212C17.6357 21.1212 17.518 21.2797 17.4003 21.5571C17.2826 21.8345 17.3218 22.0723 17.0472 22.1911C16.851 22.2704 16.184 22.2308 15.9878 22.1119C15.5562 21.8741 15.2816 21.1212 15.2816 20.6853C15.2424 20.0513 15.5562 19.5361 15.2816 18.9813C15.3993 18.8625 15.5562 18.6643 15.6739 18.5455C15.8309 18.4662 15.9878 18.6247 16.0271 18.3473C15.9878 18.3077 15.9094 18.2284 15.8701 18.2284C16.184 18.3473 16.8118 17.9907 17.0864 18.2284C17.2826 18.3473 17.4788 18.3869 17.5572 18.1492C17.5965 18.1096 17.4395 17.8322 17.518 17.6737C17.5572 18.0303 17.8319 18.1096 18.1458 17.8718C18.2635 17.9907 18.6166 17.951 18.852 18.0699C19.1266 18.2284 19.1659 18.4662 19.4405 18.1492C19.5975 18.4266 19.6367 18.4266 19.7152 18.6643C19.7544 18.9021 19.9113 19.5361 20.1075 19.655C20.5783 19.9324 20.4606 19.1795 20.4214 18.9021C20.3822 18.8625 20.3822 18.1492 20.3822 18.1492C19.6759 17.9907 19.9506 17.4359 20.3429 17.0793C20.3822 17 20.8922 16.8415 21.1276 16.683C21.3238 16.4848 21.5592 16.1678 21.4415 15.8904C21.5592 15.8904 21.6377 15.8112 21.6769 15.6923C21.6377 15.6527 21.363 15.4545 21.3238 15.4545C21.4807 15.3753 21.4415 15.2564 21.363 15.0979C21.5985 14.979 21.4807 14.7413 21.6769 14.662C21.9516 14.979 22.4224 14.6224 22.187 14.345C22.3832 14.028 22.8932 14.1865 23.0109 13.9091C23.364 13.9883 23.1286 13.5524 23.2856 13.3147C23.4425 13.1165 23.7171 13.1165 23.9133 12.9977C23.9133 13.0373 24.4626 12.7203 24.2664 12.6807C24.6588 12.7203 25.4043 12.324 24.8157 12.007C24.8942 11.8089 24.6196 11.7296 24.4234 11.6503C24.5803 11.6107 24.7765 11.7296 24.8942 11.6107C25.2081 11.4126 25.0119 11.3333 24.7765 11.2541C24.4626 11.1748 24.0703 11.373 23.8349 11.5315ZM20.2645 30.9487C23.2463 30.3939 25.9143 28.8881 27.9153 26.7483C27.7976 26.6294 27.5622 26.669 27.366 26.5897C27.2091 26.5105 27.0914 26.4312 26.856 26.3916C26.8952 25.9557 26.4244 25.7972 26.1105 25.5594C25.8358 25.3613 25.6397 25.1235 25.2473 25.2028C25.2081 25.2028 24.7765 25.3613 24.855 25.4802C24.5411 25.2028 24.4234 25.0839 24.0703 24.965C23.7171 24.8858 23.4817 24.4103 23.1286 24.8065C22.9324 25.0047 23.0109 25.2821 22.9324 25.4406C22.6578 25.2028 23.2071 24.9254 22.9717 24.648C22.7363 24.331 22.2654 24.8462 22.03 24.965C21.9123 25.0839 21.7554 25.1235 21.6769 25.282C21.5592 25.4009 21.52 25.6387 21.4415 25.7576C21.363 25.5991 21.0099 25.6387 20.9707 25.5198C21.0492 26.035 21.0492 26.5897 21.1669 27.1049C21.2453 27.4219 21.1669 27.9371 20.8922 28.1748C20.6176 28.4126 20.3037 28.69 20.2645 29.0862C20.2252 29.324 20.3037 29.5618 20.5391 29.641C20.5391 29.958 20.186 30.2354 20.186 30.5921C20.186 30.5921 20.2252 30.8298 20.2645 30.9487Z"/>
</mask>
<path d="M17.8319 0C27.0914 0 34.6245 7.60839 34.6245 17C34.6245 26.3916 27.0914 34 17.8319 34C8.57238 34 1 26.352 1 17C1 7.64802 8.53315 0 17.8319 0ZM23.8349 11.5315C23.6387 11.6503 23.521 11.9277 23.3248 11.9674C23.4033 11.9277 23.521 11.5315 23.5994 11.4522C23.7171 11.2937 23.9133 11.2145 24.0703 11.0956C24.4626 10.9767 24.8157 10.8974 25.2081 10.8578C25.6004 10.7786 26.032 10.7786 26.3459 11.0956C26.2674 11.0163 26.7775 10.5408 26.856 10.5408C27.0521 10.4219 27.366 10.4615 27.523 10.2634C27.5622 10.2238 27.5622 9.78788 27.5622 9.78788C27.1698 9.8275 27.0521 9.47086 27.0521 9.15384C27.0521 9.19347 26.9737 9.27273 26.8952 9.35198C26.9344 8.99534 26.5028 9.27273 26.3459 9.19347C25.8358 9.07459 25.9143 8.71795 25.7574 8.3613C25.6789 8.16317 25.4435 8.08392 25.365 7.88578C25.2473 7.7669 25.2081 7.44988 25.0119 7.44988C24.8942 7.41026 24.6588 7.92541 24.6196 7.88578C24.4234 7.7669 24.3057 7.92541 24.1487 8.00466C24.031 8.12354 23.9133 8.04429 23.7956 8.12354C24.188 8.00466 23.6387 7.7669 23.4033 7.80653C23.7171 7.72727 23.5602 7.41026 23.4033 7.25175H23.521C23.4817 7.05361 22.854 6.85548 22.6578 6.7366C22.4616 6.61771 21.4023 6.37995 21.2061 6.49883C20.9315 6.65734 21.2453 7.09324 21.2453 7.331C21.2846 7.60839 21.0099 7.64802 21.0099 7.88578C21.0099 8.24242 21.6769 8.2028 21.52 8.71795C21.4023 8.99534 21.0099 9.07459 20.8137 9.31235C20.6568 9.55012 20.853 9.94639 21.0099 10.1049C21.2061 10.2238 20.696 10.4615 20.6568 10.5012C20.2645 10.6597 19.9898 10.1049 19.9113 9.78788C19.8329 9.55011 19.7936 9.27273 19.5582 9.11422C19.4013 9.07459 19.0089 8.99534 18.9305 9.15384C18.7735 8.7972 18.3027 8.67832 18.0281 8.55944C17.5572 8.40093 17.2041 8.40093 16.7333 8.48019C16.8902 8.44056 16.6941 7.7669 16.3409 7.88578C16.4194 7.64802 16.3802 7.41025 16.4194 7.21212C16.4979 7.01398 16.5764 6.85548 16.6941 6.69697C16.7333 6.61772 17.2434 6.10256 17.0864 6.06294C17.4395 6.10256 17.8711 6.14219 18.185 5.82517C18.3812 5.62704 18.4596 5.31002 18.6558 5.07226C18.9305 4.75524 19.2836 5.15152 19.5975 5.19114C20.029 5.19114 19.9898 4.71562 19.7544 4.51748C20.0683 4.51748 19.7936 4.00233 19.6367 3.92308C19.4405 3.84382 18.6951 4.04196 19.1266 4.20047C19.0089 4.16084 18.4989 5.2704 18.185 4.71562C18.1065 4.59674 18.0673 4.16084 17.8711 4.12121C17.6749 4.12121 17.5572 4.31935 17.518 4.43823C17.6357 4.16084 16.8902 3.9627 16.7333 3.9627C17.0864 3.72494 16.8118 3.48718 16.5764 3.3683C16.3802 3.24942 15.8309 3.17016 15.6739 3.32867C15.2816 3.84382 16.1448 3.92308 16.3409 4.04196C16.4194 4.08158 16.6941 4.24009 16.5371 4.35897C16.3802 4.3986 15.9878 4.51748 15.9486 4.59674C15.8309 4.79487 16.1055 5.03263 15.9094 5.23077C15.7132 5.03263 15.7132 4.71562 15.5562 4.47786C15.7524 4.71562 14.7715 4.59674 14.8108 4.59674C14.4577 4.59674 13.9476 4.79487 13.7122 4.47786C13.673 4.3986 13.673 3.88345 13.7907 4.00233C13.5945 3.84382 13.4768 3.68531 13.3198 3.60606C12.6136 3.84382 11.9466 4.16084 11.2796 4.51748C11.3581 4.51748 11.4365 4.51748 11.515 4.47786C11.7112 4.3986 11.8681 4.31935 12.0251 4.20047C12.2605 4.12121 12.7313 3.84382 12.9667 4.04196C12.9667 4.00233 13.0452 3.9627 13.0844 3.9627C13.2021 4.12121 13.3591 4.31935 13.516 4.51748C13.3198 4.3986 13.0452 4.43823 12.849 4.47786C12.6921 4.51748 12.4174 4.55711 12.3782 4.75524C12.4174 4.87413 12.5351 5.03263 12.4567 5.15151C12.182 4.95338 11.9858 4.59674 11.5935 4.55711C11.3973 4.55711 11.2404 4.55711 11.0834 4.59674C9.00397 5.74592 7.23839 7.44988 5.94363 9.51049C6.0221 9.58974 6.1398 9.669 6.21827 9.669C6.41445 9.74825 6.21827 10.3823 6.61063 10.0653C6.76757 10.1445 6.76757 10.303 6.6891 10.4615C6.72833 10.4615 7.5915 11.0163 7.66997 11.0559C7.82692 11.2145 8.06233 11.373 8.10156 11.5315C8.18003 11.69 8.02309 11.8485 7.90539 11.9277C7.86615 11.8881 7.55227 11.5711 7.51303 11.6503C7.43456 11.7692 7.51303 12.3636 7.74845 12.324C7.39533 12.3636 7.55227 13.711 7.4738 13.9883C7.4738 14.028 7.51303 14.028 7.51303 14.028C7.43456 14.2657 7.66997 15.296 8.10156 15.2168C7.82692 15.2564 8.61162 16.2867 8.69009 16.366C9.00397 16.5641 9.31785 16.683 9.51403 16.9604C9.74944 17.2774 9.74944 17.7529 10.0633 17.9907C9.94561 18.2681 10.4949 18.5455 10.4949 18.9417C10.4557 18.9814 10.4164 18.9813 10.3772 18.9813C10.4949 19.2984 10.8873 19.2984 11.0442 19.5758C11.1227 19.7739 11.0442 20.1702 11.3188 20.0909C11.3973 19.6154 11.0442 19.1002 10.8088 18.704C10.6911 18.5058 10.5341 18.3077 10.4557 18.0699C10.338 17.8718 10.2987 17.634 10.2203 17.3963C10.2987 17.4359 10.7696 17.634 10.7303 17.6737C10.5734 18.1096 11.4365 18.9021 11.672 19.1795C11.7504 19.2587 12.2605 19.9324 11.9858 19.9324C12.2605 19.9324 12.6528 20.3683 12.8098 20.5664C13.006 20.9231 12.9667 21.3193 13.0844 21.676C13.2021 22.1119 13.8299 22.31 14.183 22.5082C14.4969 22.6667 14.7323 22.9044 15.0462 23.0233C15.517 23.1818 15.6347 23.0233 16.0271 22.9837C16.5764 22.8648 16.6548 23.4988 17.1256 23.7762C17.4003 23.9347 18.0281 24.1329 18.3027 24.014C18.185 24.0536 18.7735 24.965 18.8128 25.0047C19.0089 25.2821 19.4013 25.4009 19.5975 25.6783C19.6759 25.6387 19.7544 25.5594 19.7544 25.4802C19.6759 25.7179 20.1075 26.1935 20.3037 26.1538C20.5391 26.1142 20.6176 25.6387 20.6176 25.4406C20.186 25.6783 19.7936 25.4802 19.5582 25.0443C19.519 24.9254 19.1659 24.331 19.4405 24.331C19.8721 24.331 19.5975 23.9744 19.5582 23.6573C19.519 23.3403 19.2051 23.1818 19.0482 22.9044C18.9305 23.1818 18.4596 23.1026 18.3419 22.8648C18.3419 22.9441 18.2635 23.0629 18.2635 23.1422C18.185 23.1422 18.0673 23.1818 17.9496 23.1026C17.9888 22.8648 18.0281 22.5082 18.0673 22.2308C18.185 21.8345 18.9305 21.0816 17.9888 21.1212C17.6357 21.1212 17.518 21.2797 17.4003 21.5571C17.2826 21.8345 17.3218 22.0723 17.0472 22.1911C16.851 22.2704 16.184 22.2308 15.9878 22.1119C15.5562 21.8741 15.2816 21.1212 15.2816 20.6853C15.2424 20.0513 15.5562 19.5361 15.2816 18.9813C15.3993 18.8625 15.5562 18.6643 15.6739 18.5455C15.8309 18.4662 15.9878 18.6247 16.0271 18.3473C15.9878 18.3077 15.9094 18.2284 15.8701 18.2284C16.184 18.3473 16.8118 17.9907 17.0864 18.2284C17.2826 18.3473 17.4788 18.3869 17.5572 18.1492C17.5965 18.1096 17.4395 17.8322 17.518 17.6737C17.5572 18.0303 17.8319 18.1096 18.1458 17.8718C18.2635 17.9907 18.6166 17.951 18.852 18.0699C19.1266 18.2284 19.1659 18.4662 19.4405 18.1492C19.5975 18.4266 19.6367 18.4266 19.7152 18.6643C19.7544 18.9021 19.9113 19.5361 20.1075 19.655C20.5783 19.9324 20.4606 19.1795 20.4214 18.9021C20.3822 18.8625 20.3822 18.1492 20.3822 18.1492C19.6759 17.9907 19.9506 17.4359 20.3429 17.0793C20.3822 17 20.8922 16.8415 21.1276 16.683C21.3238 16.4848 21.5592 16.1678 21.4415 15.8904C21.5592 15.8904 21.6377 15.8112 21.6769 15.6923C21.6377 15.6527 21.363 15.4545 21.3238 15.4545C21.4807 15.3753 21.4415 15.2564 21.363 15.0979C21.5985 14.979 21.4807 14.7413 21.6769 14.662C21.9516 14.979 22.4224 14.6224 22.187 14.345C22.3832 14.028 22.8932 14.1865 23.0109 13.9091C23.364 13.9883 23.1286 13.5524 23.2856 13.3147C23.4425 13.1165 23.7171 13.1165 23.9133 12.9977C23.9133 13.0373 24.4626 12.7203 24.2664 12.6807C24.6588 12.7203 25.4043 12.324 24.8157 12.007C24.8942 11.8089 24.6196 11.7296 24.4234 11.6503C24.5803 11.6107 24.7765 11.7296 24.8942 11.6107C25.2081 11.4126 25.0119 11.3333 24.7765 11.2541C24.4626 11.1748 24.0703 11.373 23.8349 11.5315ZM20.2645 30.9487C23.2463 30.3939 25.9143 28.8881 27.9153 26.7483C27.7976 26.6294 27.5622 26.669 27.366 26.5897C27.2091 26.5105 27.0914 26.4312 26.856 26.3916C26.8952 25.9557 26.4244 25.7972 26.1105 25.5594C25.8358 25.3613 25.6397 25.1235 25.2473 25.2028C25.2081 25.2028 24.7765 25.3613 24.855 25.4802C24.5411 25.2028 24.4234 25.0839 24.0703 24.965C23.7171 24.8858 23.4817 24.4103 23.1286 24.8065C22.9324 25.0047 23.0109 25.2821 22.9324 25.4406C22.6578 25.2028 23.2071 24.9254 22.9717 24.648C22.7363 24.331 22.2654 24.8462 22.03 24.965C21.9123 25.0839 21.7554 25.1235 21.6769 25.282C21.5592 25.4009 21.52 25.6387 21.4415 25.7576C21.363 25.5991 21.0099 25.6387 20.9707 25.5198C21.0492 26.035 21.0492 26.5897 21.1669 27.1049C21.2453 27.4219 21.1669 27.9371 20.8922 28.1748C20.6176 28.4126 20.3037 28.69 20.2645 29.0862C20.2252 29.324 20.3037 29.5618 20.5391 29.641C20.5391 29.958 20.186 30.2354 20.186 30.5921C20.186 30.5921 20.2252 30.8298 20.2645 30.9487Z" fill="#08143D"/>
<path d="M17.8319 0C27.0914 0 34.6245 7.60839 34.6245 17C34.6245 26.3916 27.0914 34 17.8319 34C8.57238 34 1 26.352 1 17C1 7.64802 8.53315 0 17.8319 0ZM23.8349 11.5315C23.6387 11.6503 23.521 11.9277 23.3248 11.9674C23.4033 11.9277 23.521 11.5315 23.5994 11.4522C23.7171 11.2937 23.9133 11.2145 24.0703 11.0956C24.4626 10.9767 24.8157 10.8974 25.2081 10.8578C25.6004 10.7786 26.032 10.7786 26.3459 11.0956C26.2674 11.0163 26.7775 10.5408 26.856 10.5408C27.0521 10.4219 27.366 10.4615 27.523 10.2634C27.5622 10.2238 27.5622 9.78788 27.5622 9.78788C27.1698 9.8275 27.0521 9.47086 27.0521 9.15384C27.0521 9.19347 26.9737 9.27273 26.8952 9.35198C26.9344 8.99534 26.5028 9.27273 26.3459 9.19347C25.8358 9.07459 25.9143 8.71795 25.7574 8.3613C25.6789 8.16317 25.4435 8.08392 25.365 7.88578C25.2473 7.7669 25.2081 7.44988 25.0119 7.44988C24.8942 7.41026 24.6588 7.92541 24.6196 7.88578C24.4234 7.7669 24.3057 7.92541 24.1487 8.00466C24.031 8.12354 23.9133 8.04429 23.7956 8.12354C24.188 8.00466 23.6387 7.7669 23.4033 7.80653C23.7171 7.72727 23.5602 7.41026 23.4033 7.25175H23.521C23.4817 7.05361 22.854 6.85548 22.6578 6.7366C22.4616 6.61771 21.4023 6.37995 21.2061 6.49883C20.9315 6.65734 21.2453 7.09324 21.2453 7.331C21.2846 7.60839 21.0099 7.64802 21.0099 7.88578C21.0099 8.24242 21.6769 8.2028 21.52 8.71795C21.4023 8.99534 21.0099 9.07459 20.8137 9.31235C20.6568 9.55012 20.853 9.94639 21.0099 10.1049C21.2061 10.2238 20.696 10.4615 20.6568 10.5012C20.2645 10.6597 19.9898 10.1049 19.9113 9.78788C19.8329 9.55011 19.7936 9.27273 19.5582 9.11422C19.4013 9.07459 19.0089 8.99534 18.9305 9.15384C18.7735 8.7972 18.3027 8.67832 18.0281 8.55944C17.5572 8.40093 17.2041 8.40093 16.7333 8.48019C16.8902 8.44056 16.6941 7.7669 16.3409 7.88578C16.4194 7.64802 16.3802 7.41025 16.4194 7.21212C16.4979 7.01398 16.5764 6.85548 16.6941 6.69697C16.7333 6.61772 17.2434 6.10256 17.0864 6.06294C17.4395 6.10256 17.8711 6.14219 18.185 5.82517C18.3812 5.62704 18.4596 5.31002 18.6558 5.07226C18.9305 4.75524 19.2836 5.15152 19.5975 5.19114C20.029 5.19114 19.9898 4.71562 19.7544 4.51748C20.0683 4.51748 19.7936 4.00233 19.6367 3.92308C19.4405 3.84382 18.6951 4.04196 19.1266 4.20047C19.0089 4.16084 18.4989 5.2704 18.185 4.71562C18.1065 4.59674 18.0673 4.16084 17.8711 4.12121C17.6749 4.12121 17.5572 4.31935 17.518 4.43823C17.6357 4.16084 16.8902 3.9627 16.7333 3.9627C17.0864 3.72494 16.8118 3.48718 16.5764 3.3683C16.3802 3.24942 15.8309 3.17016 15.6739 3.32867C15.2816 3.84382 16.1448 3.92308 16.3409 4.04196C16.4194 4.08158 16.6941 4.24009 16.5371 4.35897C16.3802 4.3986 15.9878 4.51748 15.9486 4.59674C15.8309 4.79487 16.1055 5.03263 15.9094 5.23077C15.7132 5.03263 15.7132 4.71562 15.5562 4.47786C15.7524 4.71562 14.7715 4.59674 14.8108 4.59674C14.4577 4.59674 13.9476 4.79487 13.7122 4.47786C13.673 4.3986 13.673 3.88345 13.7907 4.00233C13.5945 3.84382 13.4768 3.68531 13.3198 3.60606C12.6136 3.84382 11.9466 4.16084 11.2796 4.51748C11.3581 4.51748 11.4365 4.51748 11.515 4.47786C11.7112 4.3986 11.8681 4.31935 12.0251 4.20047C12.2605 4.12121 12.7313 3.84382 12.9667 4.04196C12.9667 4.00233 13.0452 3.9627 13.0844 3.9627C13.2021 4.12121 13.3591 4.31935 13.516 4.51748C13.3198 4.3986 13.0452 4.43823 12.849 4.47786C12.6921 4.51748 12.4174 4.55711 12.3782 4.75524C12.4174 4.87413 12.5351 5.03263 12.4567 5.15151C12.182 4.95338 11.9858 4.59674 11.5935 4.55711C11.3973 4.55711 11.2404 4.55711 11.0834 4.59674C9.00397 5.74592 7.23839 7.44988 5.94363 9.51049C6.0221 9.58974 6.1398 9.669 6.21827 9.669C6.41445 9.74825 6.21827 10.3823 6.61063 10.0653C6.76757 10.1445 6.76757 10.303 6.6891 10.4615C6.72833 10.4615 7.5915 11.0163 7.66997 11.0559C7.82692 11.2145 8.06233 11.373 8.10156 11.5315C8.18003 11.69 8.02309 11.8485 7.90539 11.9277C7.86615 11.8881 7.55227 11.5711 7.51303 11.6503C7.43456 11.7692 7.51303 12.3636 7.74845 12.324C7.39533 12.3636 7.55227 13.711 7.4738 13.9883C7.4738 14.028 7.51303 14.028 7.51303 14.028C7.43456 14.2657 7.66997 15.296 8.10156 15.2168C7.82692 15.2564 8.61162 16.2867 8.69009 16.366C9.00397 16.5641 9.31785 16.683 9.51403 16.9604C9.74944 17.2774 9.74944 17.7529 10.0633 17.9907C9.94561 18.2681 10.4949 18.5455 10.4949 18.9417C10.4557 18.9814 10.4164 18.9813 10.3772 18.9813C10.4949 19.2984 10.8873 19.2984 11.0442 19.5758C11.1227 19.7739 11.0442 20.1702 11.3188 20.0909C11.3973 19.6154 11.0442 19.1002 10.8088 18.704C10.6911 18.5058 10.5341 18.3077 10.4557 18.0699C10.338 17.8718 10.2987 17.634 10.2203 17.3963C10.2987 17.4359 10.7696 17.634 10.7303 17.6737C10.5734 18.1096 11.4365 18.9021 11.672 19.1795C11.7504 19.2587 12.2605 19.9324 11.9858 19.9324C12.2605 19.9324 12.6528 20.3683 12.8098 20.5664C13.006 20.9231 12.9667 21.3193 13.0844 21.676C13.2021 22.1119 13.8299 22.31 14.183 22.5082C14.4969 22.6667 14.7323 22.9044 15.0462 23.0233C15.517 23.1818 15.6347 23.0233 16.0271 22.9837C16.5764 22.8648 16.6548 23.4988 17.1256 23.7762C17.4003 23.9347 18.0281 24.1329 18.3027 24.014C18.185 24.0536 18.7735 24.965 18.8128 25.0047C19.0089 25.2821 19.4013 25.4009 19.5975 25.6783C19.6759 25.6387 19.7544 25.5594 19.7544 25.4802C19.6759 25.7179 20.1075 26.1935 20.3037 26.1538C20.5391 26.1142 20.6176 25.6387 20.6176 25.4406C20.186 25.6783 19.7936 25.4802 19.5582 25.0443C19.519 24.9254 19.1659 24.331 19.4405 24.331C19.8721 24.331 19.5975 23.9744 19.5582 23.6573C19.519 23.3403 19.2051 23.1818 19.0482 22.9044C18.9305 23.1818 18.4596 23.1026 18.3419 22.8648C18.3419 22.9441 18.2635 23.0629 18.2635 23.1422C18.185 23.1422 18.0673 23.1818 17.9496 23.1026C17.9888 22.8648 18.0281 22.5082 18.0673 22.2308C18.185 21.8345 18.9305 21.0816 17.9888 21.1212C17.6357 21.1212 17.518 21.2797 17.4003 21.5571C17.2826 21.8345 17.3218 22.0723 17.0472 22.1911C16.851 22.2704 16.184 22.2308 15.9878 22.1119C15.5562 21.8741 15.2816 21.1212 15.2816 20.6853C15.2424 20.0513 15.5562 19.5361 15.2816 18.9813C15.3993 18.8625 15.5562 18.6643 15.6739 18.5455C15.8309 18.4662 15.9878 18.6247 16.0271 18.3473C15.9878 18.3077 15.9094 18.2284 15.8701 18.2284C16.184 18.3473 16.8118 17.9907 17.0864 18.2284C17.2826 18.3473 17.4788 18.3869 17.5572 18.1492C17.5965 18.1096 17.4395 17.8322 17.518 17.6737C17.5572 18.0303 17.8319 18.1096 18.1458 17.8718C18.2635 17.9907 18.6166 17.951 18.852 18.0699C19.1266 18.2284 19.1659 18.4662 19.4405 18.1492C19.5975 18.4266 19.6367 18.4266 19.7152 18.6643C19.7544 18.9021 19.9113 19.5361 20.1075 19.655C20.5783 19.9324 20.4606 19.1795 20.4214 18.9021C20.3822 18.8625 20.3822 18.1492 20.3822 18.1492C19.6759 17.9907 19.9506 17.4359 20.3429 17.0793C20.3822 17 20.8922 16.8415 21.1276 16.683C21.3238 16.4848 21.5592 16.1678 21.4415 15.8904C21.5592 15.8904 21.6377 15.8112 21.6769 15.6923C21.6377 15.6527 21.363 15.4545 21.3238 15.4545C21.4807 15.3753 21.4415 15.2564 21.363 15.0979C21.5985 14.979 21.4807 14.7413 21.6769 14.662C21.9516 14.979 22.4224 14.6224 22.187 14.345C22.3832 14.028 22.8932 14.1865 23.0109 13.9091C23.364 13.9883 23.1286 13.5524 23.2856 13.3147C23.4425 13.1165 23.7171 13.1165 23.9133 12.9977C23.9133 13.0373 24.4626 12.7203 24.2664 12.6807C24.6588 12.7203 25.4043 12.324 24.8157 12.007C24.8942 11.8089 24.6196 11.7296 24.4234 11.6503C24.5803 11.6107 24.7765 11.7296 24.8942 11.6107C25.2081 11.4126 25.0119 11.3333 24.7765 11.2541C24.4626 11.1748 24.0703 11.373 23.8349 11.5315ZM20.2645 30.9487C23.2463 30.3939 25.9143 28.8881 27.9153 26.7483C27.7976 26.6294 27.5622 26.669 27.366 26.5897C27.2091 26.5105 27.0914 26.4312 26.856 26.3916C26.8952 25.9557 26.4244 25.7972 26.1105 25.5594C25.8358 25.3613 25.6397 25.1235 25.2473 25.2028C25.2081 25.2028 24.7765 25.3613 24.855 25.4802C24.5411 25.2028 24.4234 25.0839 24.0703 24.965C23.7171 24.8858 23.4817 24.4103 23.1286 24.8065C22.9324 25.0047 23.0109 25.2821 22.9324 25.4406C22.6578 25.2028 23.2071 24.9254 22.9717 24.648C22.7363 24.331 22.2654 24.8462 22.03 24.965C21.9123 25.0839 21.7554 25.1235 21.6769 25.282C21.5592 25.4009 21.52 25.6387 21.4415 25.7576C21.363 25.5991 21.0099 25.6387 20.9707 25.5198C21.0492 26.035 21.0492 26.5897 21.1669 27.1049C21.2453 27.4219 21.1669 27.9371 20.8922 28.1748C20.6176 28.4126 20.3037 28.69 20.2645 29.0862C20.2252 29.324 20.3037 29.5618 20.5391 29.641C20.5391 29.958 20.186 30.2354 20.186 30.5921C20.186 30.5921 20.2252 30.8298 20.2645 30.9487Z" stroke="black" stroke-width="0.224163" mask="url(#path-6-inside-2_161_1178)"/>
</g>
<g filter="url(#filter4_d_161_1178)">
<path d="M16.221 23.4548L21.0388 9.54197L24.4218 9.96688C26.1433 10.1831 27.4325 10.8195 28.2893 11.876C29.1462 12.9325 29.4531 14.4282 29.21 16.3633C29.086 17.3508 28.8485 18.2699 28.4977 19.1205C28.1619 19.9594 27.716 20.7031 27.1601 21.3518C26.6176 22.0021 25.9733 22.5447 25.2273 22.9797C24.483 23.4013 23.6529 23.6969 22.737 23.8665C21.8227 24.0228 20.825 24.033 19.7441 23.8973L16.221 23.4548ZM20.0378 22.3685C20.8652 22.4724 21.6267 22.4529 22.3225 22.3098C23.0332 22.1551 23.6757 21.8969 24.2498 21.5352C24.8239 21.1735 25.3213 20.7209 25.742 20.1773C26.1627 19.6337 26.5042 19.0192 26.7665 18.3337C27.0422 17.6499 27.2303 16.9076 27.3309 16.1069C27.5153 14.639 27.2941 13.5403 26.6672 12.8109C26.0554 12.0698 25.169 11.6264 24.008 11.4806L22.3065 11.2669L18.5165 22.1774L20.0378 22.3685Z" fill="white"/>
</g>
<g filter="url(#filter5_d_161_1178)">
<path d="M22.3271 12.556H23.3359L18.3325 26.2143H18.0097L14.923 17.9427L11.8968 26.2143H11.574L6.46981 12.556H8.66886L12.2196 23.4907L14.4792 16.7524L12.9055 12.556H15.1046L18.6553 23.4907L22.3271 12.556Z" fill="white"/>
</g>
<defs>
<filter id="filter0_d_161_1178" x="0.551673" y="0" width="34.5212" height="34.8967" filterUnits="userSpaceOnUse" color-interpolation-filters="sRGB">
<feFlood flood-opacity="0" result="BackgroundImageFix"/>
<feColorMatrix in="SourceAlpha" type="matrix" values="0 0 0 0 0 0 0 0 0 0 0 0 0 0 0 0 0 0 127 0" result="hardAlpha"/>
<feOffset dy="0.448327"/>
<feGaussianBlur stdDeviation="0.224163"/>
<feComposite in2="hardAlpha" operator="out"/>
<feColorMatrix type="matrix" values="0 0 0 0 0 0 0 0 0 0 0 0 0 0 0 0 0 0 0.25 0"/>
<feBlend mode="normal" in2="BackgroundImageFix" result="effect1_dropShadow_161_1178"/>
<feBlend mode="normal" in="SourceGraphic" in2="effect1_dropShadow_161_1178" result="shape"/>
</filter>
<filter id="filter1_d_161_1178" x="15.7729" y="9.16232" width="14.6022" height="16.6851" filterUnits="userSpaceOnUse" color-interpolation-filters="sRGB">
<feFlood flood-opacity="0" result="BackgroundImageFix"/>
<feColorMatrix in="SourceAlpha" type="matrix" values="0 0 0 0 0 0 0 0 0 0 0 0 0 0 0 0 0 0 127 0" result="hardAlpha"/>
<feOffset dy="0.448327"/>
<feGaussianBlur stdDeviation="0.224163"/>
<feComposite in2="hardAlpha" operator="out"/>
<feColorMatrix type="matrix" values="0 0 0 0 0 0 0 0 0 0 0 0 0 0 0 0 0 0 0.25 0"/>
<feBlend mode="normal" in2="BackgroundImageFix" result="effect1_dropShadow_161_1178"/>
<feBlend mode="normal" in="SourceGraphic" in2="effect1_dropShadow_161_1178" result="shape"/>
</filter>
<filter id="filter2_d_161_1178" x="6.0214" y="12.556" width="17.7629" height="14.5549" filterUnits="userSpaceOnUse" color-interpolation-filters="sRGB">
<feFlood flood-opacity="0" result="BackgroundImageFix"/>
<feColorMatrix in="SourceAlpha" type="matrix" values="0 0 0 0 0 0 0 0 0 0 0 0 0 0 0 0 0 0 127 0" result="hardAlpha"/>
<feOffset dy="0.448327"/>
<feGaussianBlur stdDeviation="0.224163"/>
<feComposite in2="hardAlpha" operator="out"/>
<feColorMatrix type="matrix" values="0 0 0 0 0 0 0 0 0 0 0 0 0 0 0 0 0 0 0.25 0"/>
<feBlend mode="normal" in2="BackgroundImageFix" result="effect1_dropShadow_161_1178"/>
<feBlend mode="normal" in="SourceGraphic" in2="effect1_dropShadow_161_1178" result="shape"/>
</filter>
<filter id="filter3_d_161_1178" x="0.551673" y="0" width="34.5212" height="34.8967" filterUnits="userSpaceOnUse" color-interpolation-filters="sRGB">
<feFlood flood-opacity="0" result="BackgroundImageFix"/>
<feColorMatrix in="SourceAlpha" type="matrix" values="0 0 0 0 0 0 0 0 0 0 0 0 0 0 0 0 0 0 127 0" result="hardAlpha"/>
<feOffset dy="0.448327"/>
<feGaussianBlur stdDeviation="0.224163"/>
<feComposite in2="hardAlpha" operator="out"/>
<feColorMatrix type="matrix" values="0 0 0 0 0 0 0 0 0 0 0 0 0 0 0 0 0 0 0.25 0"/>
<feBlend mode="normal" in2="BackgroundImageFix" result="effect1_dropShadow_161_1178"/>
<feBlend mode="normal" in="SourceGraphic" in2="effect1_dropShadow_161_1178" result="shape"/>
</filter>
<filter id="filter4_d_161_1178" x="15.7729" y="9.16232" width="14.6022" height="16.6851" filterUnits="userSpaceOnUse" color-interpolation-filters="sRGB">
<feFlood flood-opacity="0" result="BackgroundImageFix"/>
<feColorMatrix in="SourceAlpha" type="matrix" values="0 0 0 0 0 0 0 0 0 0 0 0 0 0 0 0 0 0 127 0" result="hardAlpha"/>
<feOffset dy="0.448327"/>
<feGaussianBlur stdDeviation="0.224163"/>
<feComposite in2="hardAlpha" operator="out"/>
<feColorMatrix type="matrix" values="0 0 0 0 0 0 0 0 0 0 0 0 0 0 0 0 0 0 0.25 0"/>
<feBlend mode="normal" in2="BackgroundImageFix" result="effect1_dropShadow_161_1178"/>
<feBlend mode="normal" in="SourceGraphic" in2="effect1_dropShadow_161_1178" result="shape"/>
</filter>
<filter id="filter5_d_161_1178" x="6.0214" y="12.556" width="17.7629" height="14.5549" filterUnits="userSpaceOnUse" color-interpolation-filters="sRGB">
<feFlood flood-opacity="0" result="BackgroundImageFix"/>
<feColorMatrix in="SourceAlpha" type="matrix" values="0 0 0 0 0 0 0 0 0 0 0 0 0 0 0 0 0 0 127 0" result="hardAlpha"/>
<feOffset dy="0.448327"/>
<feGaussianBlur stdDeviation="0.224163"/>
<feComposite in2="hardAlpha" operator="out"/>
<feColorMatrix type="matrix" values="0 0 0 0 0 0 0 0 0 0 0 0 0 0 0 0 0 0 0.25 0"/>
<feBlend mode="normal" in2="BackgroundImageFix" result="effect1_dropShadow_161_1178"/>
<feBlend mode="normal" in="SourceGraphic" in2="effect1_dropShadow_161_1178" result="shape"/>
</filter>
</defs>
</svg>
